<svg width="151" height="39" viewBox="0 0 151 39" fill="none" xmlns="http://www.w3.org/2000/svg">
    <path fill-rule="evenodd" clip-rule="evenodd"
        d="M26.9746 1.30784C19.587 -1.98398 6.40655 1.2574 1.88088 7.46545C-0.472745 10.6936 -0.80798 15.0455 1.97012 18.1495C2.71974 18.9884 3.04101 19.2057 3.41117 17.7693C4.02809 15.366 5.1339 13.3825 6.73247 11.8483C10.5458 8.18093 16.133 6.48846 21.1902 6.66616C23.1442 6.736 24.9508 7.18454 26.0861 8.3144C29.1156 11.33 26.1156 15.6523 23.5485 17.6016C21.6341 19.0481 19.0337 20.0049 15.7574 20.4837C16.7934 17.084 18.3338 13.8861 20.0557 10.831C20.8348 9.44427 21.1561 8.9709 19.4776 8.61549C16.8578 8.05754 12.7807 8.57126 11.8091 10.6735L11.5872 11.3144C10.3688 14.2858 9.3321 17.5326 8.51263 21.0657C7.53564 21.1053 6.56874 21.1402 5.58709 21.1201C4.555 21.1007 4.39204 21.0564 4.45102 21.7766C4.57518 23.3014 5.06794 25.6752 6.88923 25.6062C7.03667 25.6015 7.33853 25.5223 7.81267 25.3695C7.63381 26.7615 7.56764 28.1657 7.61479 29.5684C7.65359 30.8023 7.7925 32.0462 8.02452 33.3041C9.89936 41.1014 18.7877 36.4237 22.5824 33.4725C24.5612 31.9329 25.9379 30.4771 26.6929 29.0997C27.448 27.7223 27.8127 26.5537 27.7785 25.6015C27.7577 25.0587 27.6353 24.5247 27.4177 24.027C26.8109 22.655 25.1975 21.6881 22.5622 21.1154C25.4986 19.4967 27.8422 17.6265 29.6091 15.4847C33.7251 10.495 32.8117 3.90281 26.9785 1.30241L26.9746 1.30784ZM23.086 25.8483C23.1745 28.548 18.3043 31.6419 16.0391 31.7304C15.3632 31.756 14.8697 31.5038 14.5686 30.9614C13.4085 28.9872 14.2528 25.2965 14.9931 23.372C17.505 22.1871 22.9727 22.281 23.0907 25.849L23.086 25.8483ZM64.8003 9.4109C64.133 9.27327 63.4538 9.20205 62.7725 9.19827C61.666 9.19879 60.6362 9.39952 59.6833 9.80045C58.1879 10.4026 57.0774 11.2268 56.3814 12.2829C55.6806 13.329 55.326 14.3548 55.326 15.3574C55.325 15.6487 55.3511 15.9495 55.4044 16.2599C55.6418 17.5978 56.5645 18.7913 58.1584 19.8575C58.5526 20.1244 59.6041 20.8298 60.3491 21.6245C63.0341 24.4918 56.8702 26.6033 55.9569 22.5619C55.8288 21.9946 55.7699 21.3529 55.7699 20.6715C56.0904 19.5122 55.3749 19.2111 54.9357 19.8575C54.2101 20.9284 53.5295 21.9403 52.7597 22.8086C51.9899 23.6677 51.3241 24.1015 50.7507 24.1015C50.4247 24.1015 50.2579 23.8004 50.2579 23.1982C50.2589 22.8521 50.3114 22.4098 50.4154 21.8712C50.8888 19.3841 52.6705 14.3106 54.5314 9.46522L60.5415 8.34001C61.3757 8.34001 62.6639 6.12839 61.5534 6.12839L55.3648 7.36224C56.5792 4.44135 56.8314 4.00213 57.3436 3.24165C56.7126 2.82341 56.0104 2.52412 55.2717 2.35855C54.5112 2.19094 53.8702 2.10247 53.3518 2.10247C52.9374 2.10247 52.5176 2.1467 52.1032 2.23517C51.2101 2.42296 50.5435 2.89633 50.1888 3.6863C49.7248 4.7277 49.315 5.69926 48.4909 8.03892L43.4228 8.76836C42.6973 8.76836 41.5278 10.8667 42.6383 10.8667L47.8197 10.1357C47.0941 12.4753 46.3639 15.2783 46.0481 17.084C45.8673 18.0813 45.729 19.0859 45.6337 20.095C45.6337 20.1043 45.6236 20.1089 45.6236 20.119C44.5527 23.9835 37.1752 28.967 36.6724 23.0011C36.5932 22.073 36.7065 21.2543 37.0076 20.1438C37.2738 20.4744 37.6734 20.6521 38.2019 20.687C38.7389 20.7202 39.0513 20.7365 39.1393 20.7359C40.0177 20.7359 40.9311 20.4744 41.8584 19.9413C42.8951 19.3492 43.6401 18.224 44.0886 16.5758C44.1779 16.1955 44.2221 15.8207 44.2221 15.4606C44.2188 14.9269 44.1238 14.3977 43.9412 13.8962C43.6205 13.0426 43.0628 12.332 42.2681 11.7645C41.4632 11.2058 40.4531 10.9262 39.2378 10.9257C37.8565 10.9257 36.6273 11.2811 35.5518 12.0012C34.4809 12.7221 33.5924 13.6494 32.8769 14.7948C32.1669 15.934 31.6733 17.0895 31.387 18.2488C31.1053 19.4183 30.9625 20.4837 30.9625 21.4367C30.9625 23.0849 31.2636 24.5213 31.9985 25.6504C35.5471 31.1042 43.0084 28.2322 45.6733 23.0112C45.7175 23.3565 45.7765 23.6917 45.851 24.0076C46.2157 25.6806 47.2128 26.6134 48.8363 26.8059H48.9449C49.9615 26.8059 51.0618 26.3271 52.2313 25.3796C52.7943 24.9136 53.3162 24.4001 53.7911 23.8446C54.3094 28.4688 61.3905 28.0645 64.1639 25.7792C66.4291 23.9245 66.9125 20.4348 64.7661 18.3575C64.0028 17.6107 63.149 16.9624 62.2247 16.4275C61.6124 16.0822 61.1437 15.7617 60.8085 15.4707C60.4722 15.1707 60.3043 14.8579 60.3048 14.5325L60.3297 14.3548C60.5858 13.6099 61.0746 13.2397 61.7808 13.2397C62.5948 13.2397 63.4042 13.5462 64.2175 14.1678C64.5488 14.4239 64.8057 14.7009 64.9881 14.9826C66.582 17.4395 67.2284 13.8225 67.2284 12.608C67.2284 12.2278 67.1841 11.8483 67.0949 11.4634C66.8388 10.4469 66.0783 9.76088 64.8204 9.41478L64.8003 9.4109ZM37.817 17.933C38.2313 17.0096 38.7094 16.2498 39.2433 15.6484C39.781 15.0563 40.2986 14.725 40.803 14.6567C41.1688 14.6707 41.4138 14.8481 41.5379 15.189C41.6714 15.5297 41.7304 15.8308 41.7304 16.0923C41.7304 17.0646 41.3059 17.8096 40.4375 18.3272C39.8348 18.7064 39.0368 18.8958 38.0436 18.8952L37.4228 18.8704C37.5314 18.5398 37.654 18.2294 37.8123 17.933H37.817ZM100.36 4.91006C103.933 4.0712 100.098 0.14771 97.1426 1.26826C87.7367 4.83556 84.5488 12.9883 82.338 21.4755C81.7901 23.5738 81.6768 23.5241 81.5441 21.2295C81.361 18.1053 82.0175 13.689 83.2909 11.1329C83.9917 9.7213 84.7172 9.92849 83.2614 9.12455C82.5452 8.72879 81.9779 8.57126 81.2772 8.57126C80.8755 8.57201 80.478 8.65274 80.1078 8.80872C77.9854 9.70656 75.8242 12.3271 74.64 16.6642C74.1666 18.4118 73.7166 19.9219 73.549 21.2349C73.2036 23.9781 72.7256 23.8842 72.5673 21.1697C72.4098 18.3769 73.1889 15.2139 74.1069 12.8354C75.0986 10.2692 76.8408 9.56377 74.1069 8.9321C73.3619 8.75905 72.745 8.67524 72.2367 8.67524C71.8565 8.67524 71.4762 8.70939 71.0921 8.78389C69.2165 9.16413 68.2644 11.6807 68.2644 16.329L68.2884 17.3906C68.352 19.9917 68.9441 22.3454 69.9801 24.4577C70.4248 25.3656 70.5287 25.6077 71.5306 26.0174C72.2755 26.3278 73.0849 26.5055 73.8943 26.5055C75.2663 26.5055 75.1126 26.3527 75.2515 25.2965C75.355 24.476 75.5472 23.4116 75.8281 22.1033C76.2378 20.1889 76.7515 18.4917 77.3685 17.001L77.3436 18.0913C77.3436 19.2367 77.4422 20.4061 77.6641 21.6004C77.862 22.6814 78.1282 23.5986 78.444 24.3591C79.1944 26.1594 81.3657 26.7965 83.3096 26.6336C85.1355 26.4807 84.6668 26.1944 84.9384 24.5516C86.5571 14.8204 90.6677 7.18066 100.355 4.91084L100.36 4.91006Z"
        fill="#454F5C" />
    <path fill-rule="evenodd" clip-rule="evenodd"
        d="M115.62 14.1063C115.985 12.9423 117.115 11.8613 115.249 11.5408C114.598 11.4275 114.11 11.3732 113.798 11.3678C113.163 11.3494 112.529 11.4397 111.924 11.6347C111.05 11.9257 110.507 12.4542 110.275 13.2286C109.623 16.1309 109.046 18.5435 108.563 20.4874C108.311 21.454 108.038 22.4149 107.744 23.3695C102.281 28.3437 102.237 24.3216 104.053 19.6835C104.636 18.1844 105.286 16.7124 106.002 15.2719C107.171 12.9275 107.975 11.5315 106.11 11.2056C105.375 11.0768 104.793 10.934 104.314 10.9239C103.881 10.91 103.448 10.9415 103.021 11.0178C101.461 11.3088 101.551 12.2904 100.968 13.5344C100.692 11.5012 99.0581 10.4505 96.8426 10.4009C95.4062 10.3667 94.1336 10.7563 93.013 11.5703C91.8933 12.375 90.9698 13.4312 90.2497 14.7139C89.5295 16.0067 89.0601 17.1909 88.8529 18.2766C88.6364 19.363 88.5324 20.236 88.5176 20.8917C88.4633 23.1964 89.0057 24.958 90.1216 26.212C92.5342 28.921 97.4495 28.4725 99.4531 24.4652C99.7837 28.6789 103.549 28.4927 106.628 26.666C106.481 27.0656 106.332 27.4707 106.174 27.861C105.814 28.7589 103.1 35.8547 102.75 37.014C102.216 38.7709 106.87 38.6382 108.336 37.2266C109.801 35.8151 111.248 28.1908 111.972 25.8667C112.304 27.2286 113.952 28.5757 115.98 28.6199C117.396 28.6502 118.665 28.2894 119.77 27.5297C120.876 26.7656 121.802 25.7671 122.548 24.5343C123.984 22.1806 124.68 19.1356 124.744 16.3916C124.892 9.84835 118.561 10.39 115.62 14.1063ZM94.7257 25.675C91.0396 24.8462 93.8123 13.6485 98.3326 14.2654C101.856 14.7496 97.5534 26.3113 94.7257 25.675ZM117.47 25.2459C115.97 27.0222 113.576 26.6031 113.354 23.4595C113.216 21.5001 113.986 18.3518 115.492 16.5554C117.85 13.7377 119.153 14.8528 119.518 17.0342C119.923 19.4475 119.029 23.3951 117.47 25.2459Z"
        fill="#454F5C" />
    <path
        d="M131.918 10.5002C137.568 6.8965 145.071 8.55534 148.675 14.2053C152.279 19.8562 150.619 27.3584 144.969 30.9622C139.318 34.5664 131.817 32.9061 128.213 27.2561C124.61 21.6061 126.268 14.104 131.918 10.5002ZM148.026 14.8118C147.484 14.7776 146.995 14.783 146.486 15.0002C146.076 15.1632 145.807 15.4245 145.678 15.7844C145.27 15.1331 144.685 14.8416 143.926 14.9104C143.166 14.9797 142.519 15.2616 141.986 15.7551C141.443 16.258 141.017 16.8746 140.738 17.5608C140.442 18.2762 140.269 18.9232 140.23 19.5051C140.185 20.0878 140.18 20.566 140.215 20.926C140.324 22.0907 140.713 22.9648 141.374 23.5569C141.824 23.9563 142.401 24.124 143.107 24.0598C143.6 24.0156 144.059 23.7534 144.474 23.2747C144.39 23.6107 143.906 24.312 143.25 24.7854C142.682 25.1904 142.035 24.9088 141.537 24.593C140.417 23.8822 139.119 25.3232 140.57 26.7844L140.566 26.7834C142.288 28.5159 144.789 27.6366 145.954 25.9993C147.997 23.1219 148.569 19.761 148.841 16.4553C148.91 15.6018 149.028 14.8816 148.026 14.8118ZM139.475 14.5559C138.933 14.521 138.444 14.5264 137.936 14.7434C137.525 14.9064 137.255 15.168 137.126 15.5276C136.717 14.8763 136.133 14.5852 135.374 14.6545C134.614 14.7234 133.967 15.0048 133.435 15.4983C132.891 16.0015 132.465 16.6184 132.187 17.3049C131.89 18.0203 131.717 18.6666 131.678 19.2493C131.633 19.8311 131.628 20.3092 131.662 20.6692C131.771 21.8346 132.161 22.708 132.822 23.3C133.272 23.6999 133.85 23.8676 134.555 23.803C135.048 23.7595 135.507 23.4968 135.922 23.0188C135.837 23.354 135.354 24.0562 134.697 24.5295C134.13 24.9342 133.484 24.6529 132.985 24.3372C131.865 23.6256 130.568 25.0672 132.018 26.5276H132.014C133.736 28.2593 136.239 27.3805 137.402 25.7424C139.445 22.8659 140.018 19.5041 140.289 16.1985C140.358 15.345 140.476 14.625 139.475 14.5559ZM129.373 23.0042C128.392 23.0981 127.849 23.6167 127.74 24.5696C127.712 24.7257 127.705 24.8853 127.721 25.0432C127.74 25.2554 127.813 25.4592 127.933 25.635C128.121 25.9259 128.535 26.0451 129.166 25.9807H129.235L129.24 25.9758C129.571 25.9266 129.871 25.7533 130.079 25.4915C130.415 25.0823 130.553 24.5637 130.494 23.9368C130.479 23.7703 130.439 23.606 130.375 23.4436C130.226 23.1125 129.892 22.9659 129.373 23.0042ZM143.388 18.2571C143.94 17.2506 145.292 16.4603 145.569 18.1672C145.733 19.1672 145.525 20.1929 144.983 21.0491H144.986C144.266 22.1991 142.989 21.933 142.9 20.679C142.836 19.7567 143.047 18.8739 143.388 18.2571ZM134.836 18.0002C135.389 16.9938 136.74 16.2042 137.017 17.9114C137.181 18.9111 136.972 19.9362 136.431 20.7922L136.435 20.7932C135.714 21.9424 134.436 21.6763 134.348 20.4231C134.283 19.4998 134.496 18.6171 134.836 18.0002Z"
        fill="#454F5C" />
</svg>