<svg width="157" height="33" viewBox="0 0 157 33" fill="none" xmlns="http://www.w3.org/2000/svg">
    <path
        d="M21.8046 22.6669C20.65 22.6669 19.6769 22.4085 18.8852 21.8917C18.1045 21.3749 17.5547 20.6381 17.2358 19.6815C16.9169 18.7249 16.8839 17.5868 17.1368 16.2673C17.3787 15.0027 17.8186 13.9691 18.4563 13.1664C19.1051 12.3637 19.9023 11.7699 20.8479 11.3851C21.7936 10.9892 22.8272 10.7913 23.9488 10.7913C24.3226 10.7913 24.7075 10.8188 25.1033 10.8738C25.5102 10.9288 25.8896 11.0002 26.2414 11.0882C26.6043 11.1762 26.9067 11.2696 27.1486 11.3686L27.5444 11.5335L26.6373 13.7932L26.0435 13.6777C25.6476 13.6008 25.2628 13.5458 24.8889 13.5128C24.5151 13.4688 24.1467 13.4468 23.7838 13.4468C23.1351 13.4468 22.5523 13.5513 22.0355 13.7602C21.5297 13.9691 21.1063 14.299 20.7655 14.7498C20.4246 15.1897 20.1827 15.778 20.0397 16.5147C19.8968 17.3174 19.8968 17.9716 20.0397 18.4775C20.1827 18.9833 20.4631 19.3626 20.8809 19.6155C21.3098 19.8574 21.8541 19.9784 22.5138 19.9784C22.8877 19.9784 23.2835 19.9564 23.7014 19.9124C24.1302 19.8574 24.581 19.797 25.0539 19.731L25.6806 19.6155L25.9445 21.7927L25.3508 21.9906C24.8449 22.1666 24.2732 22.326 23.6354 22.469C23.0086 22.6009 22.3984 22.6669 21.8046 22.6669ZM27.4273 22.502L29.6705 10.9563H35.0475C36.0261 10.9563 36.8068 11.1267 37.3896 11.4676C37.9834 11.8084 38.3902 12.2758 38.6101 12.8695C38.8301 13.4523 38.8685 14.1231 38.7256 14.8818C38.5717 15.7175 38.2473 16.3992 37.7525 16.927C37.2576 17.4438 36.5869 17.8232 35.7402 18.0651C34.8935 18.296 33.8544 18.4115 32.6229 18.4115H31.1549L30.3467 22.502H27.4273ZM31.5673 16.2673H33.8929C34.4647 16.2673 34.9045 16.1573 35.2124 15.9374C35.5313 15.7065 35.7402 15.3436 35.8392 14.8488C35.9381 14.409 35.8777 14.0626 35.6577 13.8097C35.4378 13.5458 35.0585 13.4138 34.5197 13.4138H32.1116L31.5673 16.2673ZM34.6516 22.502L32.8373 18.1971L35.5918 17.6857L37.8019 22.502H34.6516ZM39.1856 22.502L41.4288 10.9563H50.4674L49.9726 13.4633H43.8534L43.4575 15.4756H48.9335L48.4882 17.7682H43.0287L42.5834 19.9784H48.8345L48.3397 22.502H39.1856ZM49.0857 22.502L55.6997 10.9563H58.9325L61.1922 22.502H58.1573L56.8213 13.9416H56.7883L52.4174 22.502H49.0857ZM52.6483 20.4897L53.1102 18.1971H58.8665L58.4047 20.4897H52.6483ZM63.9814 22.502L65.7298 13.4963H62.0187L62.5135 10.9563H72.8221L72.3273 13.4963H68.6327L66.8844 22.502H63.9814ZM77.2681 22.6669C76.0366 22.6669 75.003 22.392 74.1673 21.8422C73.3426 21.2924 72.7653 20.5392 72.4354 19.5825C72.1166 18.6259 72.0781 17.5373 72.32 16.3168C72.5509 15.1622 72.9742 14.1781 73.59 13.3644C74.2058 12.5397 74.9865 11.9074 75.9321 11.4676C76.8888 11.0167 77.9994 10.7913 79.2639 10.7913C80.1766 10.7913 80.9793 10.9508 81.672 11.2696C82.3647 11.5885 82.9255 12.0393 83.3544 12.6221C83.7832 13.1939 84.0636 13.8702 84.1956 14.6509C84.3385 15.4206 84.3165 16.2673 84.1296 17.1909C83.8987 18.3345 83.4808 19.3186 82.876 20.1433C82.2713 20.957 81.4961 21.5838 80.5504 22.0236C79.6048 22.4525 78.5107 22.6669 77.2681 22.6669ZM77.6475 19.9619C78.3292 19.9619 78.9065 19.8519 79.3794 19.632C79.8632 19.4121 80.2535 19.0767 80.5504 18.6259C80.8583 18.1641 81.0837 17.5868 81.2267 16.894C81.3916 16.1133 81.3971 15.4701 81.2432 14.9643C81.1002 14.4584 80.8198 14.0901 80.402 13.8592C79.9951 13.6173 79.4728 13.4963 78.8351 13.4963C78.1533 13.4963 77.5705 13.6063 77.0867 13.8262C76.6139 14.0461 76.2235 14.387 75.9156 14.8488C75.6188 15.2996 75.3988 15.8714 75.2559 16.5642C75.1019 17.3449 75.0964 17.9881 75.2394 18.4939C75.3823 18.9998 75.6572 19.3736 76.0641 19.6155C76.4819 19.8464 77.0097 19.9619 77.6475 19.9619ZM84.9464 22.502L87.1896 10.9563H92.5666C93.5452 10.9563 94.3259 11.1267 94.9087 11.4676C95.5025 11.8084 95.9093 12.2758 96.1293 12.8695C96.3492 13.4523 96.3877 14.1231 96.2447 14.8818C96.0908 15.7175 95.7664 16.3992 95.2716 16.927C94.7768 17.4438 94.106 17.8232 93.2593 18.0651C92.4126 18.296 91.3735 18.4115 90.142 18.4115H88.674L87.8658 22.502H84.9464ZM89.0864 16.2673H91.412C91.9838 16.2673 92.4236 16.1573 92.7315 15.9374C93.0504 15.7065 93.2593 15.3436 93.3583 14.8488C93.4572 14.409 93.3968 14.0626 93.1769 13.8097C92.9569 13.5458 92.5776 13.4138 92.0388 13.4138H89.6307L89.0864 16.2673ZM92.1707 22.502L90.3564 18.1971L93.1109 17.6857L95.3211 22.502H92.1707ZM97.2325 22.502L99.4757 10.9563H104.325C105.139 10.9563 105.793 11.0882 106.288 11.3521C106.782 11.605 107.123 11.9624 107.31 12.4242C107.497 12.875 107.519 13.4138 107.376 14.0406C107.266 14.6014 107.024 15.1072 106.651 15.558C106.277 16.0089 105.727 16.3332 105.001 16.5312V16.5477C105.419 16.6246 105.765 16.8006 106.04 17.0755C106.315 17.3394 106.508 17.6638 106.618 18.0486C106.728 18.4335 106.733 18.8623 106.634 19.3351C106.502 19.9949 106.249 20.5612 105.875 21.034C105.501 21.5068 105.012 21.8697 104.407 22.1226C103.814 22.3755 103.104 22.502 102.28 22.502H97.2325ZM98.4531 21.5783H102.329C103.297 21.5783 104.039 21.3859 104.556 21.001C105.084 20.6052 105.424 20.0169 105.578 19.2362C105.71 18.5654 105.595 18.0266 105.232 17.6198C104.869 17.2019 104.264 16.993 103.418 16.993H99.3273L98.4531 21.5783ZM99.5087 16.0529H103.599C104.38 16.0529 104.996 15.8879 105.446 15.558C105.897 15.2172 106.183 14.7169 106.304 14.0571C106.447 13.4083 106.348 12.886 106.007 12.4902C105.677 12.0833 105.034 11.8799 104.077 11.8799H100.317L99.5087 16.0529ZM111.518 22.502L112.475 17.5703L109.159 10.9563H110.347L113.118 16.6796H113.151L118.116 10.9563H119.518L113.497 17.6528L112.557 22.502H111.518ZM122.515 22.502L124.577 11.8799H120.239L120.421 10.9563H130.136L129.954 11.8799H125.616L123.555 22.502H122.515ZM130.043 22.502L132.286 10.9563H140.5L140.319 11.8799H133.144L132.319 16.1353H138.834L138.653 17.059H132.138L131.264 21.5783H138.554L138.372 22.502H130.043Z"
        fill="#454F5C" />
    <path
        d="M14.2227 2.15039H147.537C147.97 2.15039 148.373 2.37702 148.598 2.74707L153.194 10.3027C153.427 10.6855 153.435 11.164 153.216 11.5547L142.997 29.7676C142.777 30.159 142.364 30.4014 141.915 30.4014H8.84473C8.40562 30.4014 7.99856 30.1692 7.77539 29.791L2.86914 21.4766C2.63973 21.0878 2.63908 20.6048 2.86816 20.2158L13.1543 2.76172C13.3774 2.38338 13.7835 2.15048 14.2227 2.15039Z"
        stroke="#454F5C" stroke-width="4.30174" />
</svg>