<svg width="190" height="40" viewBox="0 0 190 40" fill="none" xmlns="http://www.w3.org/2000/svg">
    <path
        d="M26.4733 26.951C25.0715 26.951 23.89 26.6373 22.9288 26.0098C21.9809 25.3823 21.3134 24.4878 20.9262 23.3264C20.5391 22.1649 20.499 20.7831 20.8061 19.1811C21.0998 17.6458 21.6338 16.3909 22.4081 15.4163C23.1958 14.4417 24.1637 13.7208 25.3118 13.2535C26.46 12.7729 27.7149 12.5326 29.0766 12.5326C29.5305 12.5326 29.9978 12.566 30.4784 12.6327C30.9724 12.6995 31.433 12.7863 31.8602 12.8931C32.3007 12.9999 32.6679 13.1134 32.9616 13.2335L33.4422 13.4338L32.3408 16.1773L31.6199 16.0371C31.1393 15.9436 30.672 15.8769 30.2181 15.8368C29.7642 15.7834 29.3169 15.7567 28.8764 15.7567C28.0887 15.7567 27.3811 15.8836 26.7537 16.1372C26.1396 16.3909 25.6256 16.7914 25.2117 17.3387C24.7978 17.8728 24.5041 18.587 24.3306 19.4815C24.157 20.456 24.157 21.2504 24.3306 21.8645C24.5041 22.4786 24.8446 22.9392 25.3519 23.2463C25.8725 23.54 26.5334 23.6868 27.3344 23.6868C27.7883 23.6868 28.2689 23.6601 28.7762 23.6067C29.2969 23.54 29.8443 23.4665 30.4183 23.3864L31.1793 23.2463L31.4997 25.8896L30.7788 26.1299C30.1647 26.3435 29.4705 26.5371 28.6961 26.7107C27.9352 26.8709 27.1942 26.951 26.4733 26.951ZM33.3 26.7507L36.0234 12.7329H42.5518C43.7399 12.7329 44.6878 12.9398 45.3954 13.3537C46.1163 13.7675 46.6103 14.3349 46.8773 15.0558C47.1443 15.7634 47.191 16.5778 47.0175 17.4989C46.8305 18.5136 46.4367 19.3413 45.8359 19.9821C45.2352 20.6096 44.4208 21.0702 43.3928 21.3639C42.3649 21.6442 41.1032 21.7844 39.608 21.7844H37.8257L36.8445 26.7507H33.3ZM38.3264 19.1811H41.15C41.8442 19.1811 42.3782 19.0476 42.752 18.7806C43.1392 18.5002 43.3928 18.0597 43.513 17.4589C43.6331 16.9249 43.5597 16.5043 43.2927 16.1973C43.0257 15.8769 42.5651 15.7167 41.9109 15.7167H38.9872L38.3264 19.1811ZM42.0711 26.7507L39.8683 21.5241L43.2126 20.9033L45.896 26.7507H42.0711ZM47.576 26.7507L50.2994 12.7329H61.2734L60.6727 15.7768H53.2432L52.7626 18.2199H59.411L58.8704 21.0034H52.2419L51.7012 23.6868H59.2909L58.6901 26.7507H47.576ZM59.5958 26.7507L67.626 12.7329H71.551L74.2945 26.7507H70.6099L68.9878 16.3575H68.9477L63.641 26.7507H59.5958ZM63.9213 24.3076L64.482 21.5241H71.4709L70.9102 24.3076H63.9213ZM77.681 26.7507L79.8037 15.8168H75.298L75.8988 12.7329H88.4147L87.814 15.8168H83.3282L81.2055 26.7507H77.681ZM93.8127 26.951C92.3174 26.951 91.0625 26.6172 90.0479 25.9497C89.0466 25.2822 88.3457 24.3677 87.9452 23.2062C87.558 22.0447 87.5113 20.7231 87.805 19.2412C88.0854 17.8394 88.5994 16.6445 89.347 15.6566C90.0946 14.6553 91.0425 13.8877 92.1906 13.3537C93.3521 12.8063 94.7005 12.5326 96.2358 12.5326C97.3438 12.5326 98.3184 12.7262 99.1595 13.1134C100.001 13.5005 100.681 14.0479 101.202 14.7555C101.723 15.4497 102.063 16.2707 102.223 17.2186C102.397 18.1531 102.37 19.1811 102.143 20.3025C101.863 21.691 101.356 22.8858 100.621 23.8871C99.8871 24.875 98.9459 25.636 97.7978 26.17C96.6496 26.6907 95.3213 26.951 93.8127 26.951ZM94.2733 23.6668C95.101 23.6668 95.8019 23.5333 96.3759 23.2663C96.9634 22.9993 97.4373 22.5921 97.7978 22.0447C98.1716 21.484 98.4453 20.7831 98.6188 19.9421C98.8191 18.9942 98.8257 18.2132 98.6388 17.5991C98.4653 16.985 98.1248 16.5377 97.6175 16.2574C97.1236 15.9637 96.4894 15.8168 95.7151 15.8168C94.8874 15.8168 94.1798 15.9503 93.5924 16.2173C93.0183 16.4843 92.5444 16.8982 92.1706 17.4589C91.8101 18.0063 91.5431 18.7005 91.3696 19.5415C91.1827 20.4894 91.176 21.2704 91.3495 21.8845C91.5231 22.4986 91.8569 22.9526 92.3508 23.2463C92.8581 23.5266 93.499 23.6668 94.2733 23.6668ZM103.135 26.7507L105.859 12.7329H112.387C113.575 12.7329 114.523 12.9398 115.23 13.3537C115.951 13.7675 116.445 14.3349 116.712 15.0558C116.979 15.7634 117.026 16.5778 116.853 17.4989C116.666 18.5136 116.272 19.3413 115.671 19.9821C115.07 20.6096 114.256 21.0702 113.228 21.3639C112.2 21.6442 110.938 21.7844 109.443 21.7844H107.661L106.68 26.7507H103.135ZM108.161 19.1811H110.985C111.679 19.1811 112.213 19.0476 112.587 18.7806C112.974 18.5002 113.228 18.0597 113.348 17.4589C113.468 16.9249 113.395 16.5043 113.128 16.1973C112.861 15.8769 112.4 15.7167 111.746 15.7167H108.822L108.161 19.1811ZM111.906 26.7507L109.703 21.5241L113.048 20.9033L115.731 26.7507H111.906ZM118.052 26.7507L120.775 12.7329H126.663C127.651 12.7329 128.445 12.8931 129.046 13.2135C129.647 13.5205 130.06 13.9544 130.287 14.5151C130.514 15.0625 130.541 15.7167 130.368 16.4776C130.234 17.1585 129.94 17.7726 129.486 18.32C129.033 18.8674 128.365 19.2612 127.484 19.5015V19.5215C127.991 19.615 128.412 19.8286 128.745 20.1623C129.079 20.4827 129.313 20.8766 129.446 21.3438C129.58 21.8111 129.587 22.3318 129.466 22.9058C129.306 23.7069 128.999 24.3944 128.545 24.9685C128.091 25.5425 127.497 25.9831 126.763 26.2901C126.042 26.5972 125.181 26.7507 124.18 26.7507H118.052ZM119.534 25.6293H124.24C125.415 25.6293 126.316 25.3957 126.943 24.9284C127.584 24.4478 127.998 23.7336 128.185 22.7857C128.345 21.9713 128.205 21.3171 127.764 20.8232C127.324 20.3159 126.589 20.0622 125.561 20.0622H120.595L119.534 25.6293ZM120.815 18.9208H125.782C126.73 18.9208 127.477 18.7205 128.025 18.32C128.572 17.9061 128.919 17.2987 129.066 16.4977C129.239 15.71 129.119 15.0759 128.705 14.5952C128.305 14.1013 127.524 13.8543 126.362 13.8543H121.797L120.815 18.9208ZM135.396 26.7507L136.558 20.7631L132.532 12.7329H133.974L137.339 19.6817H137.379L143.406 12.7329H145.109L137.799 20.8632L136.658 26.7507H135.396ZM148.748 26.7507L151.251 13.8543H145.985L146.205 12.7329H158L157.78 13.8543H152.513L150.01 26.7507H148.748ZM157.888 26.7507L160.611 12.7329H170.584L170.364 13.8543H161.653L160.651 19.0209H168.561L168.341 20.1423H160.431L159.37 25.6293H168.221L168.001 26.7507H157.888Z"
        fill="#E4FAFB" />
    <path
        d="M17.2686 2.61133H179.128C179.588 2.61133 180.019 2.82137 180.303 3.1748L180.415 3.33496L185.996 12.5088C186.279 12.9735 186.289 13.5549 186.022 14.0293L173.616 36.1416C173.35 36.6168 172.847 36.9111 172.302 36.9111H10.7383C10.2051 36.9111 9.71138 36.6291 9.44043 36.1699L3.4834 26.0752C3.20481 25.6031 3.20412 25.0162 3.48242 24.5439L15.9707 3.35352C16.2415 2.89392 16.7351 2.61133 17.2686 2.61133Z"
        stroke="#E4FAFB" stroke-width="5.22282" />
</svg>