<svg width="158" height="16" viewBox="0 0 158 16" fill="none" xmlns="http://www.w3.org/2000/svg">
    <g clip-path="url(#clip0_1_1210)">
        <path
            d="M122.281 0.881374C122.454 1.03232 122.548 1.23405 122.562 1.48656C122.572 1.6495 122.538 1.85899 122.46 2.11504C122.319 2.57352 122.104 3.04787 121.816 3.53809C121.661 3.79836 121.492 4.17538 121.306 4.66913C121.118 5.23059 120.92 5.78923 120.714 6.34505C120.487 6.96224 120.247 7.5018 119.995 7.96385C119.55 8.78133 119.037 9.58087 118.457 10.3624C118.122 10.8152 117.838 11.3235 117.605 11.887C117.603 11.8921 117.603 11.8976 117.603 11.903C117.604 11.9085 117.606 11.9136 117.609 11.918C117.613 11.9223 117.617 11.9258 117.622 11.928C117.627 11.9302 117.633 11.931 117.638 11.9304C119.365 11.7329 120.5 11.5872 121.043 11.4934C121.647 11.3883 122.255 11.309 122.867 11.2554C123.286 11.2003 123.689 11.2741 124.076 11.4765C124.101 11.4899 124.122 11.5106 124.136 11.536C124.149 11.5614 124.155 11.5903 124.153 11.6193C124.116 12.039 123.967 12.3564 123.706 12.5716C123.533 12.6795 123.366 12.7966 123.207 12.9228C123.035 13.0589 122.841 13.1499 122.625 13.1958C120.841 13.5746 119.062 13.977 117.288 14.403C116.516 14.5237 115.725 14.5487 114.916 14.4781C114.874 14.4746 114.869 14.4587 114.9 14.4305C115.094 14.2584 115.131 14.1029 115.013 13.964C114.962 13.9047 114.928 13.8631 114.911 13.8391C114.89 13.8087 114.866 13.7802 114.841 13.7534C114.819 13.7294 114.788 13.7114 114.748 13.6994C114.24 13.5435 114.047 13.205 114.168 12.6837C114.347 11.9135 114.726 11.0417 115.305 10.0682C116.031 8.84727 116.619 7.74203 117.07 6.75238C117.109 6.66636 117.125 6.56194 117.119 6.43921C117.114 6.31295 117.123 6.21032 117.146 6.13132C117.343 5.46618 117.593 4.82183 117.895 4.1983C118.078 3.82023 118.192 3.5797 118.237 3.47672C118.396 3.11417 118.491 2.86589 118.524 2.73187C118.608 2.39471 118.751 2.08717 118.955 1.80926C118.975 1.78164 119.003 1.7603 119.036 1.7479C119.248 1.66819 119.446 1.56168 119.629 1.42837C119.955 1.19208 120.309 1.13424 120.691 1.25486C120.706 1.25938 120.722 1.25892 120.736 1.25355C120.751 1.24819 120.763 1.23821 120.771 1.22523C120.955 0.925459 121.195 0.74559 121.494 0.685638C121.798 0.624271 122.061 0.689514 122.281 0.881374Z"
            fill="#454F5C" />
        <path
            d="M145.767 0.751385C145.801 0.755286 145.833 0.767444 145.862 0.786808C145.89 0.806165 145.914 0.832142 145.929 0.862481C146.313 1.58476 146.179 2.09297 145.529 2.3871C145.458 2.41983 145.399 2.47767 145.366 2.55004C145.228 2.85122 145.059 3.11573 144.859 3.34356C144.479 3.75761 144.099 4.172 143.721 4.58675C143.309 5.03677 142.946 5.46492 142.632 5.8712C141.83 6.90593 141.064 7.96717 140.334 9.0548C140.211 9.23959 140.079 9.41947 139.941 9.59442C139.841 9.72066 139.692 9.88464 139.496 10.0864C138.827 10.7748 138.204 11.5027 137.627 12.2702C137.411 12.4395 137.182 12.5894 136.94 12.7198C136.736 12.8856 136.472 13.1766 136.147 13.5927C135.812 14.0216 135.376 14.3877 134.838 14.691C134.6 14.8242 134.365 14.8617 134.131 14.8031C133.978 14.7721 133.826 14.7372 133.675 14.6983C133.484 14.6497 133.345 14.5862 133.257 14.5079C133.06 14.3323 132.973 14.078 132.994 13.7451C133.07 12.534 133.114 11.8992 133.126 11.8406C133.359 10.6888 133.473 10.0892 133.47 10.042C133.427 9.49604 133.391 8.94937 133.364 8.40203C133.312 7.88215 133.419 7.37961 133.681 6.89429C133.788 6.69753 133.83 6.46863 133.806 6.20765C133.752 5.60246 133.754 5.17889 133.813 4.93696C133.908 4.55113 133.918 4.16636 133.842 3.78265C133.835 3.74547 133.841 3.7069 133.86 3.67417C133.879 3.64145 133.91 3.61681 133.946 3.6049C134.061 3.56681 134.117 3.50121 134.114 3.4081C134.111 3.33334 134.109 3.29419 134.11 3.29066C134.142 3.00076 134.291 2.80608 134.556 2.70663C134.572 2.70028 134.587 2.69099 134.598 2.67935C134.61 2.66771 134.62 2.65395 134.626 2.63892C134.836 2.09015 135.193 1.67187 135.696 1.38409C135.698 1.38268 135.823 1.30015 136.07 1.13651C136.264 1.00743 136.508 0.934072 136.801 0.916437C137.001 0.904452 137.164 0.939716 137.29 1.02224C137.417 1.10547 137.489 1.23702 137.509 1.41689C137.528 1.59181 137.495 1.76181 137.41 1.92686C137.402 1.94133 137.398 1.95738 137.398 1.97336C137.398 1.98934 137.403 2.00469 137.412 2.01785C137.474 2.11801 137.509 2.20935 137.515 2.29188C137.545 2.66078 137.488 3.02686 137.346 3.39012C137.268 3.58903 137.221 3.76854 137.203 3.92866C137.166 4.26934 137.12 4.55254 137.065 4.77825C136.939 5.30092 136.859 5.74177 136.825 6.10079C136.779 6.60512 136.712 7.10661 136.625 7.60529C136.533 8.13009 136.464 8.65809 136.417 9.1892C136.413 9.22377 136.422 9.22689 136.444 9.19871C136.618 8.96592 136.845 8.71133 137.125 8.4348C137.882 7.68924 138.597 6.90632 139.272 6.08598C139.789 5.4568 140.305 4.82693 140.82 4.19634C141.209 3.73856 141.565 3.25681 141.888 2.75107C142.326 2.06757 142.898 1.52657 143.603 1.12805C143.616 1.12011 143.632 1.11551 143.649 1.11459C143.665 1.11368 143.682 1.11647 143.698 1.12276C143.955 1.22715 144.175 1.20916 144.357 1.0688C144.722 0.786655 145.192 0.68085 145.767 0.751385Z"
            fill="#454F5C" />
        <path
            d="M157.508 1.20593C157.557 1.55085 157.547 1.89295 157.478 2.23222C157.475 2.24767 157.467 2.26171 157.456 2.27234C157.445 2.28297 157.431 2.28967 157.416 2.29148C155.814 2.50802 154.212 2.71962 152.609 2.92629C151.976 3.08218 151.304 3.30436 150.593 3.59285C150.538 3.61457 150.494 3.65667 150.47 3.71029C150.054 4.61385 149.695 5.53258 149.393 6.46647C149.39 6.47733 149.388 6.48893 149.391 6.50015C149.393 6.51138 149.398 6.52185 149.406 6.53057C149.414 6.53928 149.423 6.54594 149.434 6.54991C149.445 6.55388 149.457 6.55502 149.468 6.55323C150.538 6.38111 151.604 6.2277 152.667 6.09298C152.933 6.05912 153.173 6.06935 153.391 6.12366C153.789 6.22241 154.172 6.36736 154.539 6.55851C154.551 6.56467 154.559 6.57551 154.563 6.58875C154.567 6.60198 154.566 6.61656 154.559 6.6294L154.158 7.4462C154.149 7.46189 154.139 7.47565 154.126 7.48655C154.114 7.49752 154.1 7.50536 154.085 7.50968C153.92 7.55907 153.765 7.62674 153.619 7.71283C153.444 7.81513 153.293 7.8814 153.165 7.91171C152.108 8.16072 151.146 8.33282 150.282 8.42807C149.707 8.49156 149.215 8.58535 148.806 8.70952C148.79 8.71444 148.775 8.72282 148.763 8.73398C148.75 8.74515 148.74 8.75884 148.734 8.774C148.669 8.92283 148.628 9.07871 148.611 9.2417C148.456 10.1086 148.355 10.9814 148.309 11.8603C148.309 11.8668 148.309 11.8732 148.312 11.8792C148.314 11.8852 148.318 11.8906 148.323 11.895C148.327 11.8993 148.333 11.9025 148.339 11.9044C148.345 11.9063 148.351 11.9068 148.357 11.9058C149.689 11.709 151.023 11.5323 152.36 11.3757C152.742 11.3313 153.121 11.325 153.498 11.3567C153.853 11.3863 154.232 11.4209 154.636 11.4604C154.664 11.463 154.692 11.4723 154.719 11.4876C154.745 11.5028 154.769 11.5239 154.789 11.5492L155.324 12.2243C155.334 12.2367 155.34 12.2515 155.342 12.2666C155.344 12.2817 155.341 12.2965 155.334 12.3089C155.197 12.5501 155.013 12.7346 154.783 12.8623C154.632 12.9462 154.39 13.0051 154.056 13.039C152.978 13.1469 151.815 13.3359 150.567 13.606C148.968 13.9517 147.982 14.1457 147.605 14.188C147.169 14.2367 146.741 14.3291 146.323 14.4652C145.989 14.5745 145.607 14.643 145.179 14.6704C145.027 14.6803 144.888 14.6638 144.763 14.6207C144.633 14.5763 144.524 14.4977 144.435 14.3848C144.245 14.1442 144.26 13.8889 144.479 13.6187C144.489 13.6066 144.495 13.5919 144.497 13.5762C144.499 13.5606 144.497 13.5446 144.491 13.5299C144.232 12.9289 144.204 12.3107 144.406 11.6751C144.457 11.429 144.512 11.1842 144.572 10.9409C144.635 10.1424 144.78 9.35876 145.006 8.58994C145.411 7.21661 145.88 5.8655 146.414 4.53662C146.609 4.04851 146.832 3.57345 147.083 3.11145C147.161 2.94005 147.211 2.7623 147.235 2.5782C147.252 2.43643 147.291 2.33168 147.352 2.26396C147.415 2.19272 147.499 2.11161 147.605 2.02062C147.794 1.85838 147.991 1.75928 148.198 1.72331C148.498 1.67112 148.652 1.64396 148.658 1.64184C149.01 1.54592 149.419 1.4715 149.885 1.4186C151.786 1.20276 153.688 0.997853 155.59 0.803878C156.263 0.650114 156.885 0.756975 157.456 1.12446C157.47 1.13378 157.482 1.14585 157.491 1.15989C157.5 1.17393 157.505 1.18962 157.508 1.20593Z"
            fill="#454F5C" />
        <path
            d="M131.917 1.38442C132.122 1.74978 132.219 2.13456 132.207 2.53873C132.205 2.63042 132.146 3.01131 132.033 3.6814C131.874 4.61529 131.665 5.44761 131.407 6.17836C131.114 7.00925 130.799 7.83172 130.463 8.64568C130.029 9.69522 129.72 10.5149 129.537 11.1045C129.336 11.7528 129.112 12.304 128.863 12.7582C128.802 12.8697 128.723 13.0785 128.628 13.3846C128.503 13.7888 128.269 14.1132 127.928 14.358C127.736 14.4962 127.516 14.5646 127.267 14.5632C127.176 14.5626 127.088 14.5887 127.012 14.6383C126.774 14.795 126.529 14.8648 126.277 14.8479C125.971 14.8281 125.753 14.6871 125.624 14.4246C125.516 14.2053 125.472 13.9602 125.493 13.6893C125.523 13.2731 125.613 12.8714 125.76 12.4842C125.846 12.2599 125.889 12.1463 125.89 12.1436C126.697 9.8751 127.206 8.47744 127.415 7.95058C127.589 7.51252 127.722 7.10697 127.812 6.73379C127.849 6.57723 127.903 6.4351 127.974 6.30743C128.11 6.05845 128.181 5.9269 128.186 5.91279C128.606 4.94645 128.957 3.95613 129.24 2.94184C129.253 2.89599 129.281 2.71859 129.323 2.40965C129.363 2.11692 129.496 1.86758 129.722 1.66162C129.766 1.62212 129.988 1.47364 130.389 1.21619C130.692 1.02151 130.934 0.917119 131.114 0.903006C131.454 0.876909 131.722 1.03738 131.917 1.38442Z"
            fill="#454F5C" />
        <path
            d="M10.7608 2.51958L10.3589 4.95834C10.3566 4.97335 10.3489 4.98705 10.337 4.99695C10.3252 5.00685 10.31 5.01229 10.2943 5.0123H4.66057C4.64012 5.01236 4.62026 5.01989 4.60443 5.03361C4.58859 5.04732 4.57778 5.06635 4.57385 5.08742L4.34329 6.3888C4.34114 6.40164 4.34174 6.4148 4.34504 6.42735C4.34835 6.43991 4.35428 6.45157 4.36243 6.46153C4.37057 6.47149 4.38074 6.47952 4.39223 6.48504C4.40371 6.49057 4.41624 6.49347 4.42896 6.49354H9.41977C9.42854 6.49359 9.43725 6.49553 9.44522 6.49923C9.4532 6.50291 9.46025 6.50828 9.4659 6.51494C9.47148 6.52159 9.4756 6.52938 9.47786 6.53775C9.48012 6.54611 9.48052 6.55486 9.47899 6.56337L9.1088 8.63291C9.10462 8.65464 9.09285 8.67419 9.07544 8.68828C9.05809 8.70237 9.03622 8.71015 9.01362 8.71015L4.03976 8.68894C4.01549 8.68901 3.99203 8.69758 3.97347 8.71301C3.95492 8.72849 3.94245 8.74996 3.93824 8.77363L3.66326 10.3278C3.66202 10.3344 3.66227 10.3411 3.66398 10.3476C3.66568 10.354 3.66882 10.36 3.67316 10.3652C3.67749 10.3703 3.68293 10.3745 3.68907 10.3774C3.69522 10.3802 3.70193 10.3817 3.70874 10.3818L9.48424 10.3882C9.49096 10.3881 9.49754 10.3895 9.50365 10.3922C9.50977 10.3948 9.51522 10.3988 9.51961 10.4037C9.52406 10.4086 9.52732 10.4144 9.52925 10.4207C9.53117 10.4269 9.5317 10.4335 9.53078 10.44C9.4201 11.2702 9.27871 12.068 9.10668 12.8333C9.0997 12.8644 9.08222 12.8923 9.05702 12.9123C9.0319 12.9322 9.00052 12.9432 8.96815 12.9433L0.0653267 12.9412C0.0580148 12.9412 0.0503182 12.9384 0.0430555 12.9332C0.0357928 12.928 0.0292353 12.9205 0.0240805 12.9116C0.01844 12.9024 0.0103318 12.8946 -0.000244141 12.8883C-0.000244141 12.8706 -0.000244141 12.853 -0.000244141 12.8354C0.621621 9.43842 1.22551 6.00897 1.81142 2.54708C1.81466 2.52812 1.82451 2.51092 1.83922 2.49853C1.85394 2.48613 1.87256 2.47935 1.89179 2.47938L10.7153 2.46668C10.722 2.46659 10.7286 2.46796 10.7346 2.47069C10.7406 2.47343 10.746 2.47746 10.7504 2.48251C10.7547 2.48755 10.7579 2.49348 10.7597 2.49989C10.7615 2.50629 10.7619 2.51302 10.7608 2.51958Z"
            fill="#454F5C" />
        <path
            d="M12.118 2.47127L15.1438 2.46387C15.1538 2.46387 15.1637 2.46607 15.1728 2.4703C15.1818 2.47452 15.1899 2.48068 15.1963 2.48834C15.2028 2.49599 15.2075 2.50497 15.2101 2.51463C15.2127 2.52429 15.2132 2.53441 15.2115 2.54427L13.9043 10.0045C13.9031 10.0108 13.9033 10.0173 13.9049 10.0235C13.9065 10.0298 13.9094 10.0356 13.9135 10.0406C13.9177 10.0457 13.9229 10.0497 13.9288 10.0527C13.9347 10.0555 13.9411 10.0572 13.9477 10.0574C15.6349 10.1046 17.3041 10.1088 18.9554 10.0701C18.9682 10.0697 18.981 10.0722 18.9927 10.0774C19.0045 10.0826 19.0149 10.0903 19.0233 10.1C19.0318 10.1098 19.0379 10.1212 19.0413 10.1336C19.0447 10.146 19.0454 10.1589 19.0432 10.1716L18.5577 12.8273C18.553 12.8532 18.5391 12.8766 18.5184 12.8934C18.4977 12.9102 18.4716 12.9194 18.4446 12.9194L10.2631 12.9394C10.2531 12.9394 10.2432 12.9372 10.2341 12.9331C10.2251 12.9289 10.2171 12.9228 10.2108 12.9152C10.2044 12.9076 10.1998 12.8987 10.1973 12.8892C10.1949 12.8797 10.1945 12.8697 10.1964 12.8601L11.9996 2.56967C12.0046 2.54208 12.0191 2.51711 12.0408 2.49912C12.0624 2.48114 12.0898 2.47128 12.118 2.47127Z"
            fill="#454F5C" />
        <path
            d="M21.4246 2.4565L24.517 2.45544C24.5259 2.45552 24.5347 2.45747 24.5428 2.46118C24.5509 2.46489 24.5581 2.47025 24.5638 2.47691C24.5696 2.48356 24.5737 2.49133 24.5761 2.49969C24.5784 2.50804 24.5788 2.51678 24.5773 2.52527L22.755 12.876C22.7524 12.8913 22.7447 12.9052 22.7334 12.9154C22.7221 12.9256 22.7076 12.9315 22.6926 12.9321C22.5982 12.9342 22.4 12.9332 22.0983 12.9289C21.298 12.919 20.4682 12.9264 19.6087 12.9511C19.5952 12.9516 19.5819 12.9492 19.5695 12.9438C19.5572 12.9384 19.5462 12.9303 19.5373 12.9201C19.5285 12.9098 19.5221 12.8977 19.5185 12.8846C19.5149 12.8714 19.5143 12.8576 19.5167 12.8443L21.3273 2.53586C21.3311 2.51368 21.3429 2.49355 21.3606 2.47903C21.3784 2.4645 21.4011 2.45653 21.4246 2.4565Z"
            fill="#454F5C" />
        <path
            d="M25.6279 2.47498H35.3779C35.3855 2.47503 35.3931 2.47673 35.4 2.47997C35.4068 2.48321 35.413 2.4879 35.4179 2.49373C35.4228 2.49956 35.4264 2.50639 35.4285 2.51374C35.4305 2.52109 35.4309 2.52881 35.4297 2.53634L34.9559 5.23008C34.9509 5.2576 34.9362 5.28247 34.9143 5.30028C34.8925 5.31809 34.8649 5.32771 34.8364 5.32743L31.6625 5.30521C31.6429 5.30519 31.6239 5.31218 31.6088 5.32495C31.5937 5.33772 31.5836 5.35545 31.58 5.37504L30.2687 12.8468C30.2639 12.8744 30.2492 12.8995 30.2271 12.9174C30.205 12.9354 30.1771 12.9453 30.1481 12.9453L27.1688 12.9505C27.1546 12.9505 27.1405 12.9475 27.1276 12.9416C27.1147 12.9358 27.1032 12.9273 27.094 12.9166C27.0848 12.9061 27.0782 12.8936 27.0744 12.8803C27.0708 12.867 27.0701 12.853 27.0726 12.8395L28.3724 5.38667C28.3739 5.37733 28.3735 5.36775 28.3711 5.35862C28.3686 5.3495 28.3643 5.34105 28.3583 5.33388C28.3524 5.32671 28.3449 5.32099 28.3366 5.31714C28.3283 5.31328 28.3191 5.31137 28.31 5.31155L25.115 5.32531C25.1056 5.32523 25.0964 5.32319 25.088 5.31932C25.0795 5.31546 25.0719 5.30986 25.0659 5.30292C25.0598 5.29597 25.0555 5.28785 25.053 5.27911C25.0505 5.27037 25.05 5.26123 25.0515 5.25231L25.5222 2.56279C25.5266 2.53819 25.5396 2.51593 25.559 2.49988C25.5783 2.48384 25.6027 2.47502 25.6279 2.47498Z"
            fill="#454F5C" />
        <path
            d="M36.4167 2.47498H45.2391C45.2457 2.47502 45.2523 2.47652 45.2584 2.47938C45.2643 2.48225 45.2697 2.4864 45.2739 2.49155C45.2782 2.49669 45.2812 2.50272 45.2829 2.50918C45.2846 2.51564 45.2848 2.52238 45.2835 2.52893L44.8689 4.92537C44.8644 4.95023 44.8515 4.97273 44.8321 4.98897C44.8128 5.0052 44.7884 5.01415 44.7631 5.01425H39.1664C39.1459 5.01415 39.1261 5.02122 39.1104 5.03419C39.0947 5.04717 39.0842 5.06521 39.0807 5.08513L38.8534 6.377C38.8507 6.39153 38.8513 6.40646 38.8551 6.42074C38.8589 6.43502 38.8657 6.44829 38.8752 6.4596C38.8847 6.47092 38.8966 6.48 38.91 6.4862C38.9234 6.49241 38.938 6.49558 38.9527 6.4955L43.9181 6.48809C43.9264 6.48815 43.9346 6.48998 43.9421 6.49345C43.9496 6.49693 43.9563 6.50196 43.9616 6.5082C43.9669 6.51444 43.9708 6.52174 43.973 6.52959C43.9752 6.53745 43.9756 6.54567 43.9742 6.55369L43.6136 8.63485C43.6098 8.65672 43.5982 8.67653 43.581 8.69068C43.5637 8.70484 43.5419 8.71242 43.5194 8.71209L38.5963 8.69195C38.5538 8.69175 38.5128 8.70631 38.4804 8.7331C38.448 8.75982 38.4265 8.79704 38.4197 8.83799L38.1691 10.3256C38.1678 10.3319 38.168 10.3384 38.1698 10.3447C38.1715 10.3509 38.1746 10.3568 38.179 10.3617C38.1833 10.3667 38.1888 10.3707 38.195 10.3734C38.2011 10.3761 38.2078 10.3775 38.2146 10.3774L44.0006 10.3838C44.0079 10.3838 44.015 10.3854 44.0215 10.3885C44.028 10.3915 44.0338 10.3959 44.0385 10.4014C44.043 10.4068 44.0464 10.4131 44.0483 10.42C44.0502 10.4268 44.0506 10.4339 44.0493 10.4409L43.6125 12.868C43.6086 12.8894 43.5971 12.9087 43.5801 12.9226C43.5631 12.9365 43.5416 12.9442 43.5194 12.9442L34.5648 12.9432C34.556 12.9431 34.5473 12.9412 34.5393 12.9374C34.5314 12.9337 34.5243 12.9283 34.5187 12.9215C34.513 12.9148 34.5089 12.9069 34.5066 12.8984C34.5044 12.8898 34.504 12.8809 34.5056 12.8722L36.3162 2.55962C36.3204 2.53583 36.3328 2.5143 36.3512 2.49881C36.3695 2.48333 36.3927 2.47489 36.4167 2.47498Z"
            fill="#454F5C" />
        <path
            d="M61.7299 2.47498L65.2474 2.48132C65.2625 2.48136 65.277 2.4864 65.2887 2.49562C65.3004 2.50484 65.3086 2.5177 65.3119 2.53211L67.7939 12.904C67.7952 12.9087 67.7952 12.9134 67.7939 12.9181C67.7926 12.9227 67.7906 12.927 67.7872 12.9307C67.7846 12.9343 67.7806 12.9372 67.7759 12.9392C67.772 12.9412 67.7673 12.9422 67.7626 12.9421L64.5949 12.9527C64.5506 12.9527 64.5077 12.9372 64.4737 12.909C64.4397 12.8808 64.4167 12.8416 64.4088 12.7982L64.1475 11.3677C64.1448 11.3531 64.1369 11.34 64.1254 11.3305C64.1138 11.321 64.0992 11.3158 64.0841 11.3159L59.9627 11.3095C59.9434 11.3096 59.9245 11.315 59.9077 11.3252C59.891 11.3354 59.8771 11.3501 59.8675 11.3677L59.0658 12.8765C59.0584 12.8903 59.0472 12.9019 59.0335 12.9101C59.0197 12.9183 59.0038 12.9227 58.9876 12.923L55.5483 12.9505C55.4862 12.9505 55.4707 12.9241 55.5017 12.8712L61.6125 2.54268C61.6247 2.52205 61.642 2.50495 61.6626 2.49308C61.6832 2.48121 61.7064 2.47497 61.7299 2.47498ZM63.018 5.45016L61.1471 8.96282C61.1404 8.97592 61.1371 8.99054 61.1376 9.00523C61.138 9.01999 61.1422 9.03428 61.1498 9.04685C61.1574 9.05941 61.168 9.06978 61.1807 9.07689C61.1933 9.08407 61.2077 9.08779 61.2222 9.08766H63.6558C63.6657 9.08766 63.6754 9.08553 63.6843 9.08128C63.6932 9.07709 63.7012 9.07091 63.7075 9.06326C63.7139 9.05562 63.7185 9.04665 63.7211 9.03694C63.7236 9.0273 63.7241 9.01713 63.7224 9.00723L63.0752 5.45862C63.0645 5.40078 63.0455 5.39796 63.018 5.45016Z"
            fill="#454F5C" />
        <path
            d="M70.4332 2.47661L72.9546 2.49248C72.9705 2.49275 72.9851 2.49758 72.9984 2.5064C73.0111 2.51522 73.0217 2.52765 73.0277 2.5422L75.3343 7.83868C75.3383 7.84765 75.3443 7.8555 75.3522 7.86135C75.3595 7.86726 75.3689 7.87099 75.3782 7.87225C75.3881 7.87358 75.3981 7.87232 75.4074 7.86866C75.4167 7.865 75.4247 7.85902 75.4307 7.85138L79.6371 2.49565C79.6464 2.48313 79.6597 2.47301 79.6743 2.46605C79.6889 2.45908 79.7055 2.45546 79.7222 2.45544L82.4582 2.48084C82.4648 2.4809 82.4715 2.48241 82.4775 2.48523C82.4834 2.48805 82.4888 2.49213 82.4934 2.49718C82.4974 2.50223 82.5007 2.50812 82.5021 2.51444C82.504 2.52075 82.504 2.52734 82.5027 2.53374L80.6947 12.8803C80.6913 12.898 80.6814 12.9141 80.6667 12.9257C80.6521 12.9373 80.6342 12.9437 80.6149 12.9437L77.8337 12.9543C77.819 12.9543 77.8044 12.9512 77.7911 12.9451C77.7778 12.9391 77.7659 12.9304 77.7566 12.9195C77.7472 12.9086 77.7399 12.8958 77.7359 12.8821C77.7326 12.8684 77.732 12.854 77.734 12.84L78.6054 7.84293C78.626 7.72727 78.5994 7.71531 78.525 7.80697L75.7564 11.2424C75.7464 11.2551 75.7331 11.2656 75.7185 11.2732C75.7039 11.2808 75.6879 11.2855 75.672 11.2868C75.1535 11.3284 74.6357 11.3263 74.1185 11.2805C74.1019 11.2792 74.0866 11.2737 74.0733 11.2644C74.06 11.2551 74.0494 11.2424 74.042 11.2276L72.4221 7.79215C72.4061 7.76044 72.3955 7.76217 72.3902 7.79747L71.4902 12.8749C71.4868 12.8957 71.4755 12.9144 71.4589 12.928C71.4416 12.9415 71.4204 12.949 71.3984 12.949L68.5953 12.9511C68.586 12.951 68.5766 12.949 68.568 12.945C68.5587 12.9411 68.5514 12.9354 68.5454 12.9283C68.5388 12.9213 68.5348 12.913 68.5321 12.9041C68.5295 12.8953 68.5295 12.886 68.5308 12.8771L70.3435 2.55279C70.3475 2.53128 70.3588 2.51181 70.3747 2.49785C70.3914 2.48389 70.412 2.47637 70.4332 2.47661Z"
            fill="#454F5C" />
        <path
            d="M84.0976 2.47498L87.1939 2.48132C87.2005 2.48138 87.2072 2.48288 87.2132 2.4857C87.2192 2.48852 87.2245 2.4926 87.2291 2.49765C87.2331 2.5027 87.2364 2.50859 87.2378 2.51491C87.2398 2.52123 87.2398 2.52783 87.2384 2.53422L85.4344 12.8585C85.431 12.8765 85.4217 12.893 85.4071 12.905C85.3925 12.917 85.3745 12.9237 85.3552 12.9241L82.2762 12.9548C82.2649 12.9549 82.2536 12.9526 82.2437 12.948C82.233 12.9434 82.2237 12.9367 82.2164 12.9283C82.2091 12.92 82.2038 12.9101 82.2011 12.8995C82.1978 12.8889 82.1971 12.8778 82.1991 12.867L84.0152 2.54481C84.0185 2.52522 84.0285 2.50749 84.0437 2.49472C84.059 2.48195 84.0776 2.47496 84.0976 2.47498Z"
            fill="#454F5C" />
        <path
            d="M91.4155 2.47449C91.4348 2.47448 91.4534 2.47922 91.47 2.48828C91.4873 2.49733 91.5013 2.5104 91.5119 2.52633L95.2915 8.33071C95.3135 8.36455 95.3274 8.36175 95.3341 8.3222L96.3365 2.52633C96.3392 2.50974 96.3478 2.49467 96.3611 2.48382C96.3744 2.47297 96.391 2.46703 96.4083 2.46708L99.3338 2.45544C99.3451 2.45547 99.3557 2.45789 99.3663 2.46253C99.3763 2.46718 99.3849 2.47392 99.3923 2.48231C99.3996 2.49069 99.4049 2.5005 99.4075 2.51104C99.4102 2.52157 99.4109 2.53257 99.4089 2.54326L97.5995 12.894C97.5968 12.908 97.5888 12.9206 97.5782 12.9297C97.5669 12.9387 97.5529 12.9437 97.539 12.9437L95.0855 12.9416C95.0689 12.9416 95.0529 12.9376 95.0383 12.93C95.0243 12.9225 95.0124 12.9115 95.0037 12.8982L91.1277 6.93199C91.0831 6.86425 91.0539 6.8699 91.0399 6.94887L89.9917 12.8771C89.9897 12.8915 89.9823 12.9046 89.9704 12.9142C89.9591 12.9237 89.9445 12.9289 89.9298 12.9289L86.9844 12.9427C86.9758 12.9426 86.9671 12.9407 86.9592 12.9371C86.9512 12.9334 86.9445 12.9281 86.9386 12.9216C86.9332 12.915 86.9292 12.9074 86.9273 12.8991C86.9246 12.8909 86.9246 12.8822 86.9259 12.8739L88.744 2.52105C88.7466 2.50622 88.7546 2.49282 88.7659 2.48316C88.7772 2.4735 88.7918 2.46819 88.8064 2.46814L91.4155 2.47449Z"
            fill="#454F5C" />
        <path
            d="M49.1121 2.46962C52.691 2.46397 54.5168 2.46645 54.5893 2.47702C54.9736 2.53204 55.2644 2.60258 55.4619 2.68863C56.2086 3.0138 56.6249 3.56715 56.7109 4.34868C56.7764 4.94189 56.7215 5.57953 56.5459 6.26161C56.5419 6.27647 56.5333 6.28961 56.5212 6.29898C56.5091 6.30836 56.4945 6.31344 56.4793 6.31345L53.499 6.32826C53.4773 6.32826 53.4558 6.32337 53.4362 6.31395C53.4166 6.30452 53.3992 6.29079 53.3854 6.27372C53.3716 6.25666 53.3616 6.23668 53.3561 6.2152C53.3508 6.19372 53.35 6.17128 53.3541 6.14945C53.4944 5.41166 53.2385 5.04451 52.5862 5.04804C51.0528 5.05792 50.286 5.06285 50.286 5.06285C49.9476 5.03323 49.6765 5.0618 49.4727 5.14856C49.2605 5.23884 49.1177 5.39402 49.0444 5.61409C49.043 5.61902 49.007 5.81617 48.9366 6.20553C48.7271 7.35387 48.5332 8.50498 48.3548 9.65895C48.2688 10.2127 48.5071 10.4923 49.0698 10.498C50.0216 10.5071 50.9734 10.5117 51.9253 10.5117C52.4019 10.5047 52.6987 10.2747 52.8158 9.82187C52.868 9.61946 52.9106 9.42689 52.9437 9.24422C52.9456 9.23379 52.9452 9.22309 52.9426 9.21292C52.94 9.20268 52.9353 9.19324 52.9287 9.18513C52.9222 9.17709 52.914 9.17057 52.9047 9.16619C52.8954 9.16173 52.8852 9.15947 52.875 9.15954L50.7175 9.14471C50.71 9.14478 50.7027 9.14325 50.6959 9.14033C50.6891 9.13734 50.6831 9.13295 50.6783 9.1275C50.6734 9.12205 50.6698 9.11567 50.6679 9.10875C50.6659 9.10184 50.6655 9.09466 50.6668 9.08761L50.9967 7.10592C50.9991 7.09097 51.0067 7.07727 51.0181 7.06724C51.0295 7.0572 51.0439 7.05142 51.0591 7.05088C52.042 7.00575 53.0248 7.00223 54.0077 7.04032C54.7854 7.02336 55.5546 7.01672 56.3154 7.02024C56.3248 7.02024 56.334 7.0223 56.3425 7.02629C56.351 7.03021 56.3586 7.03593 56.3647 7.04304C56.3708 7.05015 56.3753 7.05853 56.378 7.06757C56.3806 7.07654 56.3813 7.08605 56.3799 7.09535C56.2375 8.05323 56.076 8.99129 55.8955 9.90968C55.7248 10.7744 55.5373 11.3666 55.3328 11.6861C54.9563 12.2744 54.3845 12.6588 53.6174 12.8394C53.3467 12.9029 52.9959 12.9314 52.5651 12.9251C52.2457 12.9208 52.0839 12.9187 52.0797 12.9187C48.8921 12.9187 47.2983 12.9187 47.2983 12.9187C47.0558 12.899 46.8171 12.857 46.5823 12.7928C45.8998 12.6074 45.4422 12.2085 45.2096 11.5962C45.1024 11.3141 45.0442 10.9974 45.0351 10.6461C45.0294 10.4218 45.0615 10.105 45.1313 9.69597C45.3866 8.20346 45.6506 6.71201 45.9235 5.22156C46.025 4.61848 46.2122 4.1004 46.485 3.66731C46.7741 3.21024 47.1442 2.89283 47.5955 2.71508C47.807 2.63185 48.0563 2.56696 48.3432 2.5204C48.5448 2.48725 48.8011 2.47032 49.1121 2.46962Z"
            fill="#454F5C" />
        <path
            d="M103.518 2.45285C105.211 2.46908 106.902 2.47719 108.595 2.47719C109.101 2.47084 109.567 2.56995 109.989 2.7745C110.358 2.95295 110.634 3.23756 110.82 3.62833C111.04 4.09033 111.127 4.57949 111.081 5.09582C111.051 5.44356 110.988 5.82727 110.895 6.24695C110.891 6.26469 110.881 6.28058 110.868 6.29194C110.854 6.3033 110.836 6.30946 110.819 6.30938L107.79 6.33266C107.775 6.33288 107.76 6.32948 107.746 6.32272C107.733 6.31596 107.721 6.30603 107.711 6.29376C107.703 6.28148 107.696 6.26719 107.694 6.25207C107.691 6.23696 107.692 6.22142 107.697 6.20675C107.792 5.88228 107.782 5.59909 107.669 5.35715C107.59 5.18998 107.459 5.10287 107.274 5.09582C106.172 5.05208 105.07 5.05208 103.968 5.09582C103.771 5.10357 103.612 5.2256 103.491 5.4619C103.389 5.66292 103.318 5.87453 103.28 6.09671C102.907 8.28893 102.707 9.5004 102.679 9.73106C102.643 10.0309 102.722 10.2463 102.917 10.3775C103.03 10.4523 103.226 10.4939 103.508 10.5023C104.401 10.5313 105.294 10.5317 106.188 10.5034C106.476 10.4942 106.68 10.452 106.8 10.3764C106.985 10.26 107.11 10.0714 107.174 9.81043C107.235 9.55716 107.269 9.35861 107.278 9.21476C107.278 9.20812 107.277 9.20153 107.275 9.19529C107.273 9.1891 107.269 9.18345 107.264 9.1786C107.259 9.17375 107.253 9.16989 107.247 9.16717C107.241 9.16451 107.234 9.16305 107.227 9.16291L105.059 9.13752C105.052 9.13745 105.046 9.13593 105.04 9.133C105.033 9.13014 105.028 9.12602 105.024 9.12084C105.019 9.11572 105.016 9.10967 105.015 9.10322C105.013 9.09677 105.013 9.09006 105.014 9.08355L105.352 7.0976C105.355 7.08304 105.363 7.06981 105.374 7.06038C105.386 7.05087 105.401 7.04575 105.415 7.04575L110.632 7.0278C110.647 7.0276 110.663 7.03106 110.678 7.03777C110.692 7.04455 110.705 7.05446 110.715 7.06676C110.725 7.07912 110.733 7.09361 110.737 7.10917C110.741 7.12472 110.741 7.14101 110.739 7.15689C110.576 8.03573 110.425 8.90048 110.289 9.75113C110.239 10.0608 110.174 10.3669 110.093 10.6695C110.001 11.0208 109.89 11.3118 109.761 11.5424C109.246 12.4629 108.425 12.9238 107.299 12.9253C105.519 12.9273 103.738 12.9273 101.958 12.9253C101.374 12.94 100.9 12.8498 100.537 12.6544C99.7925 12.253 99.4082 11.6203 99.385 10.7563C99.3777 10.4636 99.3983 10.1726 99.4488 9.88341C99.7193 8.30342 99.9992 6.72482 100.287 5.14766C100.367 4.71034 100.506 4.29277 100.702 3.89495C100.992 3.3088 101.446 2.90781 102.065 2.69197C102.535 2.52762 103.02 2.44791 103.518 2.45285Z"
            fill="#454F5C" />
    </g>
    <defs>
        <clipPath id="clip0_1_1210">
            <rect width="157.541" height="15.9535" fill="white" />
        </clipPath>
    </defs>
</svg>