<svg width="161" height="41" viewBox="0 0 161 41" fill="none" xmlns="http://www.w3.org/2000/svg">
    <path fill-rule="evenodd" clip-rule="evenodd"
        d="M0 12.7657C0 12.6073 0.107863 12.4688 0.262774 12.4282L11.4893 8.22397L16.636 14.901H5.41797L19.6513 34.8514L17.8873 22.2693H27.9438L22.6436 4.04688L33.4501 0V28.1343C33.4501 28.2542 33.3878 28.3658 33.2851 28.4297L16.9134 40.8296C16.7983 40.9014 16.6518 40.9014 16.5366 40.8296L0.164941 28.4297C0.0622762 28.3658 0 28.2542 0 28.1343V12.7657Z"
        fill="#454F5C" />
    <path
        d="M100.797 31.9432V33.9187H103.861V35.2356H99.2598V27.5534H103.861V28.8704H100.797V30.6263H103.202V31.9432H100.797Z"
        fill="#454F5C" />
    <path
        d="M92.0133 27.5534H93.5508V34.5552L92.2768 35.2905H88.8394L87.5655 34.5552V27.5534H89.103V33.8638H92.0133V27.5534Z"
        fill="#454F5C" />
    <path
        d="M79.1637 32.5469V31.2299H81.9641V34.5552L80.6902 35.2905H77.5822L76.3083 34.5552V28.2338L77.5822 27.4985H80.6902L81.9641 28.2338V29.8032H80.4266V28.8155H77.8458V33.9735H80.4266V32.5469H79.1637Z"
        fill="#454F5C" />
    <path
        d="M68.7325 27.5534L71.478 35.2356H69.9625L69.3804 33.5785H66.5031L65.921 35.2356H64.4055L67.151 27.5534H68.7325ZM67.9308 29.4849L66.9643 32.2615H68.9082L67.9527 29.4849H67.9308Z"
        fill="#454F5C" />
    <path
        d="M56.8406 31.9432V33.9187H59.9047V35.2356H55.3031V27.5534H59.9047V28.8704H56.8406V30.6263H59.2457V31.9432H56.8406Z"
        fill="#454F5C" />
    <path d="M46.0862 35.2356V27.5534H47.6237V33.9187H50.2485V35.2356H46.0862Z" fill="#454F5C" />
    <path
        d="M155.239 21.8963L152.703 17.1344H151.145V21.8963H146.85V6.31995H153.615C156.953 6.31995 159.401 8.58964 159.401 11.8384C159.401 13.7521 158.466 15.332 156.931 16.2443L160.024 21.8963H155.239ZM151.145 10.1473V13.5296H153.103C154.305 13.5296 154.995 12.7953 154.995 11.8384C154.995 10.8593 154.305 10.1473 153.103 10.1473H151.145Z"
        fill="#454F5C" />
    <path
        d="M138.492 18.1802H144.388V21.8963H134.219V6.31995H144.188V10.036H138.492V12.328H143.609V15.8438H138.492V18.1802Z"
        fill="#454F5C" />
    <path d="M132.304 6.31995V10.1918H128.076V21.8963H123.759V10.1918H119.531V6.31995H132.304Z"
        fill="#454F5C" />
    <path
        d="M112.45 22.2961C108.645 22.2961 106.175 20.2711 106.175 16.8666H110.603C110.603 17.9792 111.471 18.5355 112.45 18.5355C113.34 18.5355 114.208 18.0459 114.208 17.2004C114.208 16.2213 112.984 15.932 111.493 15.576C109.246 15.0197 106.375 14.3299 106.375 10.7918C106.375 7.72104 108.623 5.96313 112.294 5.96313C116.033 5.96313 118.191 7.8768 118.191 11.0588H113.874C113.874 10.0575 113.14 9.5902 112.25 9.5902C111.493 9.5902 110.759 9.92398 110.759 10.6583C110.759 11.5484 111.938 11.8376 113.385 12.2159C115.699 12.7945 118.681 13.5733 118.681 17.1114C118.681 20.5159 116.077 22.2961 112.45 22.2961Z"
        fill="#454F5C" />
    <path
        d="M96.2255 13.576H104.77C104.77 18.6717 101.432 22.2988 96.5592 22.2988C91.7973 22.2988 88.2593 18.872 88.2593 14.1323C88.2593 9.39265 91.7306 5.9436 96.5147 5.9436C100.609 5.9436 103.947 8.50257 104.614 12.1074H100.097C99.541 10.7945 98.1391 9.94895 96.5592 9.94895C94.2228 9.94895 92.6652 11.6401 92.6652 14.1323C92.6652 16.6023 94.2005 18.2934 96.5592 18.2934C98.2059 18.2934 99.6078 17.4924 100.097 16.2908H96.2255V13.576Z"
        fill="#454F5C" />
    <path
        d="M83.5697 21.8963L82.7241 19.3818H77.2057L76.3378 21.8963H71.7317L77.851 6.31995H82.0566L88.3094 21.8963H83.5697ZM81.6783 16.0218L79.9427 11.1931L78.2515 16.0218H81.6783Z"
        fill="#454F5C" />
    <path
        d="M66.6587 21.8963L64.122 17.1344H62.5643V21.8963H58.2697V6.31995H65.0343C68.3721 6.31995 70.8198 8.58964 70.8198 11.8384C70.8198 13.7521 69.8852 15.332 68.3498 16.2443L71.4429 21.8963H66.6587ZM62.5643 10.1473V13.5296H64.5225C65.7241 13.5296 66.4139 12.7953 66.4139 11.8384C66.4139 10.8593 65.7241 10.1473 64.5225 10.1473H62.5643Z"
        fill="#454F5C" />
    <path
        d="M56.0088 10.214H50.4235V12.684H55.4302V16.4446H50.4235V21.8963H46.0844V6.31995H56.0088V10.214Z"
        fill="#454F5C" />
</svg>