<svg width="107" height="39" viewBox="0 0 107 39" fill="none" xmlns="http://www.w3.org/2000/svg">
    <g clip-path="url(#clip0_1_1226)">
        <path
            d="M50.8664 34.5078H53.6213C53.6213 36.7397 51.9823 38.5559 49.9676 38.5559H47.5439C45.5296 38.5559 43.8895 36.7397 43.8895 34.5078C43.8895 33.3354 44.3446 32.281 45.0663 31.5414L45.0655 31.5403C44.078 30.4845 43.4673 29.029 43.4673 27.4261C43.4673 25.0663 44.794 23.0279 46.6945 22.1227L45.5457 21.2183L47.2498 19.0537L51.1715 22.1408H51.1723C51.1737 22.1408 51.1737 22.1424 51.1737 22.1424L51.1773 22.1448C53.0499 23.0632 54.3545 25.0835 54.3545 27.4254C54.3545 30.6344 51.9118 33.2427 48.9132 33.2427C48.7436 33.2427 48.578 33.2337 48.413 33.2148C48.4108 33.214 48.4083 33.214 48.4048 33.213H47.5439C47.0652 33.213 46.6455 33.8173 46.6455 34.506C46.6455 35.1948 47.0652 35.7991 47.5439 35.7991H49.9676C50.4466 35.8009 50.8664 35.1973 50.8664 34.5078ZM46.223 27.4261C46.223 28.9807 47.2448 30.2648 48.5601 30.4598H49.2667C50.5776 30.2648 51.5995 28.9807 51.5995 27.4261C51.5995 25.7411 50.3916 24.3677 48.9132 24.3677C47.4308 24.3686 46.223 25.7411 46.223 27.4261Z"
            fill="#454F5C" />
        <path
            d="M65.6359 27.4248C65.6359 27.4266 65.6359 33.1069 65.6359 33.1087H62.8809V32.4807C62.0912 32.9677 61.1729 33.2431 60.1957 33.2431C57.1931 33.2431 54.7495 30.6349 54.7495 27.4255C54.7495 24.2205 57.1921 21.6123 60.1957 21.6123C61.1729 21.6123 62.0912 21.8878 62.8809 22.3748V21.677H65.6359V27.4216C65.6359 27.4234 65.6359 27.4234 65.6359 27.4248ZM62.8809 27.4198C62.8784 25.7374 61.6723 24.3665 60.1957 24.3665C58.7123 24.3665 57.5044 25.739 57.5044 27.4248C57.5044 29.1146 58.7123 30.4871 60.1957 30.4871C61.6723 30.4871 62.8792 29.1172 62.8809 27.4298V27.4198Z"
            fill="#454F5C" />
        <path
            d="M85.3732 27.0062V33.1108H82.6186V27.0062C82.6186 25.6001 81.4739 24.4562 80.068 24.4562C78.6614 24.4562 77.5181 25.6009 77.5181 27.0062V33.1108H74.7628V27.0062C74.7628 25.6001 73.6181 24.4562 72.2122 24.4562C70.8057 24.4562 69.6623 25.6009 69.6623 27.0062V33.1108H66.907V21.6792H69.6623V22.3573C70.4188 21.9399 71.2889 21.7013 72.2122 21.7013C73.7697 21.7013 75.1683 22.3802 76.1401 23.4527C77.1113 22.3802 78.5099 21.7013 80.068 21.7013C82.9935 21.7005 85.3732 24.0807 85.3732 27.0062Z"
            fill="#454F5C" />
        <path
            d="M96.5372 28.8081L89.085 28.7852C89.549 29.6854 90.439 30.3691 91.4634 30.4979C92.9603 30.6865 94.0804 29.5516 94.2041 29.4189L96.2109 31.3055C95.8805 31.659 94.2273 33.2751 91.807 33.2751C91.5824 33.2751 91.3524 33.2612 91.1131 33.234C88.2434 32.8669 85.9933 30.3183 85.9933 27.4256C85.9933 25.8325 86.664 24.2115 87.7894 23.0907C88.7586 22.1305 89.9983 21.6255 91.2979 21.6123C92.6705 21.6213 93.9794 22.2003 94.9798 23.2424C96.054 24.3583 96.6383 25.9005 96.5824 27.4757L96.5372 28.8081ZM93.5799 26.0441C93.4369 25.7136 93.2402 25.4102 92.9916 25.1536C92.5097 24.6485 91.9034 24.3731 91.2786 24.3681C90.576 24.3731 90.0442 24.7355 89.7317 25.0478C89.4559 25.3184 89.2266 25.6587 89.0604 26.0301L93.5799 26.0441Z"
            fill="#454F5C" />
        <path
            d="M105.506 31.4714C104.871 32.4939 103.66 33.153 102.186 33.2818C102.016 33.2968 101.848 33.304 101.681 33.304C100.246 33.304 98.9275 32.7677 98.0832 31.8231C97.4006 31.0592 97.0303 30.0373 97.0137 28.8691L99.769 28.8305C99.7737 29.1758 99.8415 29.657 100.138 29.9873C100.494 30.3859 101.205 30.6023 101.947 30.5368C102.599 30.4803 103.035 30.2277 103.166 30.0177C103.24 29.8981 103.356 29.5676 103.237 29.3135C103.065 28.9493 102.183 28.7664 101.406 28.6051C100.064 28.3271 98.3937 27.9811 97.6552 26.36C97.1294 25.2072 97.3959 24.0043 97.8207 23.2631C98.4342 22.1906 99.662 21.4707 101.107 21.3362C102.642 21.1953 104.092 21.7332 104.984 22.781C105.553 23.4492 105.873 24.3307 105.908 25.3302L103.154 25.4269C103.145 25.1678 103.091 24.8079 102.887 24.5676C102.585 24.2134 101.989 24.0207 101.363 24.0806C100.836 24.1298 100.375 24.3511 100.212 24.6324C100.167 24.7119 100.059 24.9915 100.164 25.2187C100.322 25.568 101.195 25.7491 101.966 25.909C103.305 26.1862 104.971 26.5314 105.729 28.14C106.316 29.3872 105.976 30.7146 105.506 31.4714Z"
            fill="#454F5C" />
        <mask id="mask0_1_1226" style="mask-type:luminance" maskUnits="userSpaceOnUse" x="0" y="0"
            width="44" height="38">
            <path d="M43.4898 0.158325H0.309265V37.6965H43.4898V0.158325Z" fill="white" />
        </mask>
        <g mask="url(#mask0_1_1226)">
            <path fill-rule="evenodd" clip-rule="evenodd"
                d="M11.133 33.9545L8.94552 30.1548C11.0758 26.4127 13.2633 22.6707 15.3934 18.9285L13.2631 15.1862C11.0755 18.9285 8.94519 22.6704 6.75677 26.4127L4.62649 22.6704C6.75677 18.871 8.94426 15.1862 11.0743 11.3858L8.944 7.70099C6.75651 11.4433 4.62617 15.1852 2.49614 18.9275L0.309265 15.1852L8.94552 0.158325L19.7121 18.9275L11.133 33.9545Z"
                fill="#454F5C" />
            <path fill-rule="evenodd" clip-rule="evenodd"
                d="M41.3655 18.9854H24.0355L17.5876 30.2127H30.5418L28.4114 33.9552H15.3998L13.2695 37.6973H30.5414L37.0477 26.4709H24.0361L26.2236 22.7285H39.1776L41.3655 18.9854Z"
                fill="#454F5C" />
            <path fill-rule="evenodd" clip-rule="evenodd"
                d="M34.859 0.213989L43.4953 15.2409H39.1775C37.0472 11.4987 34.8597 7.6982 32.7296 3.95625H28.4118C30.5421 7.69853 32.6721 11.499 34.8597 15.2409H21.9055L13.2695 0.213989H34.859ZM19.7174 3.95625L24.0352 11.499H28.353L24.0352 3.95625H19.7174Z"
                fill="#454F5C" />
        </g>
    </g>
    <defs>
        <clipPath id="clip0_1_1226">
            <rect width="106.357" height="38.5543" fill="white" />
        </clipPath>
    </defs>
</svg>