<svg width="106" height="34" viewBox="0 0 106 34" fill="none" xmlns="http://www.w3.org/2000/svg">
    <g clip-path="url(#clip0_1_1207)">
        <path fill-rule="evenodd" clip-rule="evenodd"
            d="M10.1531 27.1687C13.2271 28.9144 17.3984 28.9645 20.8485 27.1928C22.0902 26.5501 23.1561 25.6139 23.9536 24.4655C24.3538 23.9066 23.8794 23.7755 23.4257 23.7755H12.5768C11.9178 23.7755 11.6228 23.5857 11.6228 22.9336V20.5807C11.6228 20.0631 11.5745 19.9027 11.9678 19.5594C13.0029 18.6676 15.2455 17.0443 16.6893 15.4555C18.6887 13.2612 17.5381 10.7288 14.1656 11.3567C11.4158 11.8743 8.71609 13.3664 7.15491 15.5659C4.3741 19.4818 6.09743 24.864 10.1393 27.1601L10.1531 27.1687ZM16.641 0.000628106C19.3863 -0.00319755 22.0886 0.681879 24.5005 1.99308C24.9317 2.22769 24.8179 2.35534 24.5988 2.70035C24.0105 3.62671 23.3912 4.60828 23.0704 5.09992C22.9462 5.29313 22.8271 5.38973 22.4131 5.32935C20.7277 5.08267 19.1234 4.76871 17.4225 4.53237C16.3081 4.37884 16.3995 4.28914 15.7682 4.83599C15.0057 5.49669 14.2156 6.06941 13.6222 6.64385C13.341 6.91814 13.567 7.31318 13.9672 7.23383C22.3528 5.57949 26.2497 13.2992 18.9561 18.8642C18.4696 19.2351 18.7215 19.5836 19.2683 19.5542H24.7661C25.5769 19.5542 25.8512 19.6802 25.9875 18.8815L27.1433 12.1175C27.421 10.489 27.3416 10.6546 26.7758 9.78347C26.21 8.91232 25.2543 7.61507 24.5746 6.62488C24.3918 6.36094 24.4263 6.18326 24.516 6.04181L26.0944 3.55255C26.3135 3.18166 26.3618 3.1644 26.7172 3.43868C28.7117 4.97685 30.3262 6.95252 31.4364 9.21334C32.5467 11.4742 33.1229 13.9597 33.1206 16.4785C33.1206 20.8491 31.3843 25.0408 28.2939 28.1313C25.2034 31.2217 21.0117 32.958 16.641 32.958C12.2704 32.958 8.07875 31.2217 4.98825 28.1313C1.89774 25.0408 0.161499 20.8491 0.161499 16.4785C0.161499 14.3143 0.587766 12.1714 1.41594 10.172C2.24411 8.17261 3.45797 6.35591 4.98825 4.82565C6.51852 3.29538 8.3352 2.0815 10.3346 1.25334C12.334 0.425169 14.4769 -0.00109863 16.641 -0.00109863"
            fill="#454F5C" />
        <path
            d="M97.529 18.1409H103.686C103.983 18.1409 104.131 17.9926 104.131 17.72V15.0427C104.131 14.7702 103.983 14.6201 103.686 14.6201H97.5375V11.2217H104.503C104.8 11.2217 104.949 11.0734 104.949 10.8008V8.07346C104.957 8.01294 104.951 7.95124 104.932 7.89324C104.913 7.83524 104.88 7.78251 104.837 7.73921C104.794 7.69589 104.742 7.66318 104.684 7.64366C104.626 7.62413 104.564 7.61831 104.503 7.62666H93.9927C93.9319 7.61802 93.8702 7.62361 93.8119 7.64302C93.7537 7.66241 93.7008 7.69508 93.6575 7.73843C93.6142 7.78176 93.5816 7.8346 93.5623 7.89276C93.5428 7.95091 93.5372 8.01277 93.5459 8.07346V24.9049C93.5376 24.9655 93.5433 25.027 93.563 25.085C93.5824 25.143 93.615 25.1956 93.6583 25.2387C93.7016 25.2818 93.7544 25.3144 93.8124 25.3336C93.8705 25.3529 93.9321 25.3586 93.9927 25.35H104.893C104.953 25.3565 105.014 25.3495 105.071 25.3294C105.128 25.3094 105.18 25.2768 105.222 25.234C105.265 25.1914 105.298 25.1397 105.318 25.0828C105.338 25.0257 105.345 24.9649 105.338 24.9049V22.1776C105.342 22.1191 105.333 22.0606 105.312 22.0061C105.291 21.9514 105.258 21.9023 105.215 21.8621C105.173 21.8219 105.122 21.7915 105.066 21.7732C105.01 21.7551 104.951 21.7494 104.893 21.7567H97.5308L97.529 18.1409ZM75.448 25.3534C75.5086 25.362 75.5702 25.3565 75.6281 25.3372C75.6861 25.3179 75.7387 25.2855 75.7818 25.2422C75.8251 25.199 75.8576 25.1464 75.8769 25.0884C75.8962 25.0305 75.9019 24.9689 75.8933 24.9084V21.6307C75.8933 19.3743 75.7948 16.302 75.6464 13.6954L75.7447 13.6696C76.2157 14.8098 77.2078 17.0162 78.0013 18.6533L79.2399 21.1063C79.2739 21.2084 79.3415 21.2961 79.4317 21.3547C79.5221 21.4134 79.6296 21.4394 79.7367 21.4289H82.1154C82.2218 21.4363 82.3279 21.4089 82.4173 21.3506C82.5067 21.2924 82.5745 21.2067 82.6107 21.1063L83.8182 18.6533C84.61 17.0162 85.6018 14.8098 86.0727 13.6696L86.1728 13.6954C86.0227 16.2986 85.9244 19.3709 85.9244 21.6307V24.9084C85.9181 24.9686 85.9254 25.0293 85.9456 25.0862C85.9659 25.1431 85.9989 25.1949 86.0417 25.2377C86.0844 25.2803 86.1362 25.3129 86.1931 25.3329C86.2502 25.3529 86.3113 25.36 86.3713 25.3534H89.4437C89.7162 25.3534 89.8663 25.2051 89.8663 24.9084V8.07691C89.8663 7.7802 89.7162 7.63011 89.4437 7.63011H85.9244C85.8177 7.6218 85.7115 7.6489 85.622 7.70724C85.5324 7.76558 85.4646 7.85189 85.4293 7.9527L83.1729 12.2654C82.4294 13.7541 81.3633 16.1571 80.9665 17.149H80.8684C80.4457 16.1571 79.4055 13.7541 78.6361 12.2654L76.4056 7.9527C76.3673 7.8538 76.2988 7.76941 76.21 7.71152C76.1212 7.65361 76.0163 7.62516 75.9103 7.63011H72.3897C72.3291 7.62178 72.2675 7.6276 72.2096 7.64712C72.1516 7.66665 72.0988 7.69934 72.0557 7.74266C72.0126 7.78596 71.98 7.83869 71.9606 7.89669C71.9415 7.9547 71.9358 8.01639 71.9444 8.07691V24.9084C71.9358 24.9689 71.9413 25.0305 71.9606 25.0884C71.98 25.1464 72.0124 25.199 72.0557 25.2422C72.0988 25.2855 72.1516 25.3179 72.2096 25.3372C72.2675 25.3565 72.3291 25.362 72.3897 25.3534H75.448ZM61.8392 11.9687H61.9373C62.4341 13.6299 63.2018 16.3313 63.8972 18.5118H59.9052C60.5745 16.3313 61.3441 13.6299 61.8392 11.9687ZM57.4539 25.3534C57.5662 25.3564 57.6761 25.3213 57.7659 25.2541C57.8558 25.1868 57.9203 25.091 57.949 24.9825L58.891 21.9585H64.9148L65.8308 24.9825C65.8634 25.0931 65.932 25.1897 66.0257 25.257C66.1196 25.3241 66.2331 25.3581 66.3483 25.3534H69.6451C69.9677 25.3534 70.116 25.155 69.9901 24.8583L64.2403 7.97684C64.2111 7.87521 64.1492 7.78616 64.064 7.7237C63.9786 7.66123 63.8751 7.62891 63.7695 7.63182H60.0018C59.8969 7.63227 59.7951 7.66589 59.7104 7.72787C59.6259 7.78986 59.5631 7.87699 59.531 7.97684L53.7796 24.8583C53.6796 25.155 53.8038 25.3534 54.1247 25.3534H57.4539ZM52.396 23.0988C52.4582 23.0329 52.506 22.9545 52.5357 22.8688C52.5655 22.7832 52.5766 22.6922 52.5685 22.6019V15.4636C52.575 15.4068 52.5688 15.3491 52.55 15.295C52.5312 15.2409 52.5003 15.1918 52.4598 15.1513C52.4194 15.1108 52.3704 15.08 52.3163 15.0612C52.2623 15.0424 52.2045 15.0361 52.1476 15.0427H46.1238C46.0667 15.0358 46.0087 15.0419 45.9544 15.0606C45.9002 15.0793 45.8507 15.11 45.8102 15.1506C45.7695 15.1911 45.7384 15.2403 45.7196 15.2946C45.7006 15.3488 45.6943 15.4066 45.701 15.4636V17.8925C45.701 18.1909 45.8512 18.3393 46.1238 18.3393H48.7751V21.1891C47.9327 21.6604 46.98 21.8986 46.015 21.8791C44.1312 21.8791 42.8926 20.9114 42.8926 18.9293V13.9956C42.8926 12.0877 44.0829 11.0716 45.9666 11.0716C47.4278 11.0716 48.7423 11.3925 49.8084 12.0135C50.0309 12.1619 50.2293 12.1619 50.4035 11.9135L52.063 9.53459C52.1017 9.48804 52.1293 9.4335 52.1441 9.3749C52.1591 9.3163 52.1608 9.25514 52.1491 9.19584C52.1374 9.13654 52.1124 9.08058 52.0763 9.03206C52.0403 8.98353 51.994 8.94365 51.9407 8.91529C50.3036 7.8975 48.0971 7.30408 45.9908 7.30408C41.7765 7.30408 38.8525 9.58461 38.8525 13.8714V19.0466C38.8525 23.3592 41.8023 25.6657 46.015 25.6657C48.6025 25.6657 50.8745 24.6306 52.3856 23.0884"
            fill="#454F5C" />
    </g>
    <defs>
        <clipPath id="clip0_1_1207">
            <rect width="105.402" height="33.1213" fill="white" />
        </clipPath>
    </defs>
</svg>