<svg width="144" height="22" viewBox="0 0 144 22" fill="none" xmlns="http://www.w3.org/2000/svg">
    <path
        d="M2.51268 0.781411C2.55421 0.468111 2.82322 0.233683 3.14191 0.233043L7.63217 0.224724C8.01668 0.22403 8.31386 0.559355 8.26374 0.937394L8.01717 2.7981C7.94387 3.35111 8.57753 3.71923 9.02813 3.38535L12.8082 0.339805C12.9178 0.25864 13.0508 0.214698 13.1875 0.214378L23.1037 0.121695C23.7294 0.120415 23.9805 0.921929 23.4642 1.27245L13.3566 7.11487C13.0964 7.2916 13.0061 7.63087 13.1446 7.91196L20.8763 19.5083C21.0822 19.926 20.7768 20.4136 20.3079 20.4156L9.83754 20.5299C9.64185 20.5308 9.45664 20.4422 9.33547 20.2898L7.15162 17.5437C6.8033 17.1057 6.09521 17.299 6.02191 17.852L5.75824 19.8416C5.71677 20.1542 5.44875 20.3884 5.13073 20.3899L0.638865 20.4104C0.253625 20.4122 -0.0446757 20.0765 0.00552547 19.6977L2.51268 0.781411Z"
        fill="#454F5C" />
    <path
        d="M50.9834 20.4187C51.3015 20.4173 51.5695 20.1831 51.6109 19.8704L54.15 0.712725C54.2 0.334632 53.9032 -0.000692186 53.5185 1.07305e-06L49.0282 0.00837369C48.7096 0.0089603 48.4405 0.243389 48.399 0.556689L45.8583 19.7265C45.808 20.1053 46.1063 20.441 46.4916 20.4392L50.9834 20.4187Z"
        fill="#454F5C" />
    <path fill-rule="evenodd" clip-rule="evenodd"
        d="M43.2699 20.5505C43.5881 20.5492 43.8563 20.315 43.8978 20.0021L46.4364 0.848764C46.4865 0.470671 46.1893 0.135347 45.8046 0.136093L25.9189 0.175929C25.6003 0.176569 25.3313 0.410997 25.2898 0.724244L22.7485 19.8981C22.6983 20.2769 22.9966 20.6125 23.3818 20.6108L27.8737 20.5903C28.1917 20.5888 28.4597 20.3546 28.5012 20.0419L29.1138 15.4198C29.1554 15.1057 29.4255 14.8711 29.7449 14.8714L38.0807 14.8803C38.4645 14.8808 38.7604 15.2157 38.7104 15.5931L38.1454 19.8559C38.0952 20.2345 38.3933 20.5701 38.7784 20.5686L43.2699 20.5505ZM30.0324 8.48891C29.9824 8.86625 30.2783 9.20115 30.6621 9.20158L38.998 9.21048C39.3173 9.21086 39.5874 8.97616 39.629 8.66217L39.8662 6.87233C39.9163 6.49499 39.6203 6.16004 39.2365 6.15961L30.9007 6.1507C30.5813 6.15038 30.3112 6.38503 30.2696 6.69907L30.0324 8.48891Z"
        fill="#454F5C" />
    <path
        d="M143.828 1.64292C143.878 1.26483 143.581 0.929555 143.196 0.930248L138.706 0.938567C138.387 0.939154 138.118 1.17358 138.077 1.48694L136.807 11.0623C136.733 11.6221 136.011 11.8104 135.669 11.3594L128.06 1.339C127.939 1.18051 127.751 1.0874 127.551 1.08778L122.652 1.0969C122.333 1.09748 122.064 1.33191 122.023 1.64521L119.563 20.2051C119.512 20.5839 119.811 20.9196 120.196 20.9178L124.688 20.8973C125.006 20.8959 125.274 20.6617 125.316 20.349L126.545 11.0735C126.619 10.5183 127.331 10.3266 127.678 10.7688L135.331 20.5366C135.45 20.6889 135.633 20.7787 135.828 20.7803L140.723 20.819C141.044 20.8215 141.317 20.5863 141.359 20.2706L143.828 1.64292Z"
        fill="#454F5C" />
    <path
        d="M117.222 20.9336L117.828 16.3629C117.878 15.9857 117.582 15.6507 117.198 15.6503L103.578 15.6341C103.194 15.6336 102.898 15.2987 102.948 14.9214L102.986 14.6317C103.028 14.3178 103.298 14.0831 103.617 14.0834L108.913 14.0882C109.232 14.0885 109.502 13.8538 109.544 13.5398L110.129 9.12756C110.179 8.75021 109.883 8.41526 109.499 8.41489L104.535 8.41041C104.151 8.41004 103.855 8.07509 103.905 7.69769L103.985 7.09898C104.026 6.78488 104.297 6.55024 104.616 6.55061L118.568 6.56714C118.887 6.56751 119.157 6.33287 119.198 6.01883L119.755 1.81826C119.806 1.44011 119.508 1.10479 119.124 1.10559L99.5583 1.1458C99.2399 1.14644 98.971 1.38087 98.9291 1.69411L96.4612 20.3136C96.4112 20.6924 96.7097 21.028 97.0947 21.0263L117.218 20.9367C117.22 20.9367 117.222 20.9354 117.222 20.9336Z"
        fill="#454F5C" />
    <path
        d="M94.436 21.0334C94.4381 21.0333 94.4419 21.0349 94.4424 21.0326L95.0603 16.3688C95.1103 15.9915 94.8146 15.6565 94.4306 15.6561L85.4831 15.6453C84.8587 15.6446 84.6092 14.8445 85.1249 14.4946L96.3058 6.90262C96.3166 6.89511 96.3198 6.86631 96.3214 6.85394L96.9791 1.8942C97.0291 1.51669 96.7328 1.18169 96.3488 1.18153L95.767 1.18131C95.7589 1.18131 95.7519 1.17502 95.7508 1.16686C95.7503 1.15865 95.7433 1.15236 95.7352 1.15241L93.8718 1.15646C93.8605 1.15646 93.8493 1.1603 93.8401 1.16734C93.8304 1.17438 93.8191 1.17822 93.8073 1.17822L86.9743 1.16926L76.7834 1.18878C76.4645 1.18937 76.1957 1.4238 76.1542 1.7371L75.5734 6.11663C75.5234 6.49397 75.8197 6.82893 76.2032 6.8293L84.2645 6.83746C84.8759 6.8381 85.134 7.61028 84.6447 7.97307L74.528 15.4683C74.3903 15.5701 74.3005 15.7226 74.2779 15.8912L73.6794 20.4097C73.6288 20.7884 73.9273 21.124 74.3124 21.1223L94.436 21.0334Z"
        fill="#454F5C" />
    <path
        d="M56.9158 14.1097L57.6606 8.48965C57.7031 8.16852 57.9844 7.93158 58.3108 7.94161L61.951 8.05359C62.2775 8.06362 62.5582 7.82674 62.6012 7.50555L62.9002 5.24595C62.9642 4.76493 63.5289 4.53253 63.9171 4.82749L70.9798 10.1898C71.3116 10.442 71.3121 10.938 70.9803 11.1905L62.335 17.7718C61.8859 18.1138 61.2438 17.7464 61.3175 17.1895L61.5229 15.6386C61.5719 15.2688 61.2885 14.9378 60.912 14.9262L57.5267 14.8221C57.1503 14.8105 56.8669 14.4796 56.9158 14.1097Z"
        fill="#454F5C" />
</svg>