<svg
    width="133"
    height="34"
    viewBox="0 0 133 34"
    fill="none"
    xmlns="http://www.w3.org/2000/svg"
>
    <g clip-path="url(#clip0_1_1194)">
        <path
            fill-rule="evenodd"
            clip-rule="evenodd"
            d="M3.35891 25.8756V6.54761H0.00210571V25.8756H3.35891Z"
            fill="#454F5C"
        />
        <path
            fill-rule="evenodd"
            clip-rule="evenodd"
            d="M12.0711 11.7986C7.93686 11.7986 4.79042 14.9227 4.79042 18.9759C4.79042 23.0292 8.00087 26.2262 12.0711 26.2262C16.1413 26.2262 19.3518 23.102 19.3518 19.0488C19.3518 14.9956 16.2145 11.7986 12.0711 11.7986ZM12.0711 22.9563C9.85766 22.9563 8.14724 21.253 8.14724 18.9759C8.14724 16.6988 9.85766 15.0685 12.0711 15.0685C14.2846 15.0685 15.995 16.7718 15.995 18.9759C15.995 21.1802 14.3577 22.9563 12.0711 22.9563Z"
            fill="#454F5C"
        />
        <path
            fill-rule="evenodd"
            clip-rule="evenodd"
            d="M27.9752 11.7966C23.8409 11.7966 20.6213 14.9207 20.6213 19.0468C20.6213 23.1729 23.8318 26.2242 27.902 26.2242C31.9723 26.2242 35.1827 23.1 35.1827 19.0468C35.1827 17.6259 34.7528 16.3417 34.0394 15.3488L35.1095 14.9207V12.2156H30.3259C29.5392 11.8603 28.7527 11.7875 27.966 11.7875L27.9752 11.7966ZM27.9752 22.9543C25.7617 22.9543 24.0513 21.251 24.0513 18.974C24.0513 16.6969 25.7617 15.0665 27.9752 15.0665C30.1887 15.0665 31.8991 16.7698 31.8991 18.974C31.8991 21.1782 30.1155 22.9543 27.9752 22.9543Z"
            fill="#454F5C"
        />
        <path
            fill-rule="evenodd"
            clip-rule="evenodd"
            d="M31.9011 26.7264C31.828 29.0035 30.1175 30.6339 27.9772 30.6339C25.837 30.6339 24.0534 28.9307 24.0534 26.7264H20.6325C20.6325 30.8434 23.843 33.9039 27.9132 33.9039C31.9835 33.9039 35.2671 30.7797 35.2671 26.7264H31.9011Z"
            fill="#454F5C"
        />
        <path
            fill-rule="evenodd"
            clip-rule="evenodd"
            d="M36.6083 12.2278V25.8721H39.9652V12.2278H36.6083Z"
            fill="#454F5C"
        />
        <path
            fill-rule="evenodd"
            clip-rule="evenodd"
            d="M38.3981 10.6726C39.7518 10.6726 40.7488 9.6798 40.7488 8.46833C40.6025 7.12033 39.6055 6.11841 38.3981 6.11841C37.1908 6.11841 36.1847 7.11122 36.1847 8.46833C36.1847 9.6798 37.1817 10.6726 38.3981 10.6726Z"
            fill="#454F5C"
        />
        <path
            fill-rule="evenodd"
            clip-rule="evenodd"
            d="M43.459 12.2257H41.6754V15.2133H43.459V25.7973H46.8158V15.2133H48.7457V12.2257H46.8158V8.03589H43.459V12.2257Z"
            fill="#454F5C"
        />
        <path
            fill-rule="evenodd"
            clip-rule="evenodd"
            d="M56.3078 11.7986C52.1644 11.7986 49.1003 14.9227 49.1003 19.0488C49.1003 23.1749 51.8808 26.0805 56.3078 26.0805C58.6585 26.0805 60.872 25.1605 62.5184 23.521L60.1585 21.1802C59.0152 22.3187 57.8078 22.9563 56.381 22.9563C54.451 22.9563 53.0973 21.8178 52.6675 20.1873H63.2958V19.404C63.2958 14.9319 60.3689 11.7986 56.2986 11.7986H56.3078ZM52.5943 17.6279C53.0973 15.8518 54.3779 14.859 56.1614 14.859C57.945 14.859 59.2987 15.8518 59.6554 17.6279H52.5943Z"
            fill="#454F5C"
        />
        <path
            fill-rule="evenodd"
            clip-rule="evenodd"
            d="M71.6486 11.8738C67.5146 11.8738 64.3681 14.9979 64.3681 19.0512C64.3681 23.1044 67.5784 26.2285 71.6486 26.2285C74.0084 26.2285 76.1488 25.09 77.5028 23.5234L75.1517 21.1825C74.2191 22.1754 73.0119 22.9587 71.6579 22.9587C69.4443 22.9587 67.8716 21.2554 67.8716 19.0512C67.7247 16.8469 69.5175 15.1436 71.6579 15.1436C73.0851 15.1436 74.2284 15.8541 75.1517 16.9198L77.5028 14.579C76.1488 12.8757 74.146 11.8829 71.6486 11.8829V11.8738Z"
            fill="#454F5C"
        />
        <path
            fill-rule="evenodd"
            clip-rule="evenodd"
            d="M117.821 0.000610352C108.619 0.000610352 101.119 7.38748 101.119 16.5596C101.119 25.7317 108.61 33.1186 117.821 33.1186V26.2236C112.397 26.2236 108.116 21.8152 108.116 16.5596C108.116 11.3041 112.397 6.89565 117.821 6.89565V0.000610352Z"
            fill="#454F5C"
        />
        <path
            fill-rule="evenodd"
            clip-rule="evenodd"
            d="M132.95 13.574H118.032V20.3323H126.099V28.3568H132.95V13.574Z"
            fill="#454F5C"
        />
        <path
            fill-rule="evenodd"
            clip-rule="evenodd"
            d="M91.9164 17.848C92.0626 14.0862 89.6297 11.8091 86.4191 11.8091C84.7087 11.8091 83.2822 12.3738 82.2851 13.5124V6.48071H78.9282V25.8086H82.2851V18.4218C82.2851 16.4362 83.5016 15.1519 85.5689 15.1519C87.4986 15.1519 88.5688 16.3633 88.5688 18.4218V25.8086H91.9257V17.848H91.9164Z"
            fill="#454F5C"
        />
    </g>
    <defs>
        <clipPath id="clip0_1_1194">
            <rect width="132.946" height="33.9012" fill="white" />
        </clipPath>
    </defs>
</svg>