<svg width="158" height="16" viewBox="0 0 158 16" fill="none" xmlns="http://www.w3.org/2000/svg">
    <g clip-path="url(#clip0_1_1192)">
        <path
            d="M9.75205 6.88795L3.20851 0.0247708H0.00233459V15.9547H4.29855V7.40943L9.75205 13.1153L15.182 7.40943V15.9547H19.5018V0.0247708H16.2956L9.75205 6.88795ZM20.861 15.9547H38.7691V0.0685066H20.861V15.9547ZM25.1437 4.09221H34.4595V11.931H25.1437V4.09221ZM40.1014 15.9547H58.0095V0.0685066H40.1014V15.9547ZM44.4111 4.09221H53.7268V11.931H44.4111V4.09221ZM72.3987 9.13865L62.6287 0.0012207H59.3553V15.9547H63.6515V6.86441L73.4217 15.9547H76.6948V0.0012207H72.3987V9.13865ZM82.4713 4.09221H94.7914V0.0685066H78.1785V8.79552L90.5863 10.6358V11.7964H78.0409V15.9547H94.8824V7.20416L82.4713 5.38746V4.09221ZM104.683 0.0012207L96.2212 12.8427V15.9547H115.734V12.8427L107.273 0.0012207H104.683ZM102.179 11.6148L105.954 5.86519L109.772 11.6148H102.179ZM126.819 6.88795L120.276 0.0247708H117.073V15.9547H121.366V7.40943L126.819 13.1153L132.253 7.40943V15.9547H136.569V0.0247708H133.366L126.819 6.88795ZM148.96 0.0012207H146.37L137.915 12.8427V15.9547H157.428V12.8427L148.96 0.0012207ZM143.87 11.6148L147.645 5.86519L151.46 11.6148H143.87Z"
            fill="#454F5C" />
    </g>
    <defs>
        <clipPath id="clip0_1_1192">
            <rect width="157.541" height="15.9535" fill="white" />
        </clipPath>
    </defs>
</svg>