<svg width="147" height="36" viewBox="0 0 147 36" fill="none" xmlns="http://www.w3.org/2000/svg">
    <path
        d="M72.0932 9.54229C74.5826 9.54229 77.072 9.54229 79.6369 9.54229C79.6773 9.67766 79.7176 9.81302 79.7592 9.95249C79.7982 10.043 79.8372 10.1335 79.8783 10.2231C79.9656 10.4184 80.0398 10.6191 80.116 10.819C80.1428 10.8891 80.1428 10.8891 80.1701 10.9605C80.2987 11.2994 80.4188 11.6406 80.5352 11.9839C80.6434 12.3004 80.7638 12.6111 80.8868 12.922C80.9912 13.1879 81.0873 13.4556 81.1788 13.7263C81.3087 14.1108 81.452 14.4891 81.5993 14.8672C81.7376 15.2224 81.8726 15.577 81.9868 15.9411C82.051 16.1412 82.1244 16.337 82.201 16.5326C82.2118 16.5601 82.2225 16.5876 82.2336 16.616C82.2875 16.7535 82.3418 16.8909 82.397 17.0279C82.5243 17.3484 82.6197 17.6664 82.6986 18.0022C82.7513 18.2198 82.8189 18.4311 82.8888 18.6435C82.9172 18.7312 82.9455 18.8189 82.9737 18.9066C82.9882 18.9514 83.0026 18.9961 83.0175 19.0422C83.0945 19.2831 83.1689 19.5247 83.2431 19.7665C83.257 19.8116 83.271 19.8568 83.2853 19.9033C83.2982 19.9455 83.3112 19.9877 83.3245 20.0312C83.3415 20.0868 83.3415 20.0868 83.359 20.1435C83.3877 20.2463 83.4098 20.3486 83.4291 20.4535C83.5159 20.3435 83.5802 20.2382 83.6365 20.1098C83.6516 20.0757 83.6668 20.0415 83.6823 20.0063C83.698 19.9703 83.7137 19.9343 83.7299 19.8972C83.7627 19.8226 83.7956 19.748 83.8285 19.6734C83.8441 19.6377 83.8597 19.6021 83.8758 19.5654C83.9251 19.454 83.9764 19.3436 84.028 19.2332C84.1141 19.0428 84.1873 18.8485 84.259 18.6522C84.3454 18.4163 84.4372 18.1828 84.5297 17.9493C84.7099 17.4937 84.8798 17.0377 85.0296 16.5711C85.1119 16.3152 85.2011 16.0618 85.2896 15.8081C85.3976 15.4966 85.5006 15.1855 85.5894 14.8679C85.6672 14.594 85.7579 14.3245 85.8483 14.0545C86.06 13.4217 86.2543 12.7944 86.4025 12.1434C86.4812 11.807 86.5834 11.4796 86.6873 11.1503C86.8116 10.7509 86.9134 10.348 87.0105 9.9411C87.0216 9.89489 87.0327 9.84868 87.0441 9.80107C87.0537 9.75995 87.0634 9.71884 87.0734 9.67648C87.099 9.58331 87.099 9.58331 87.1398 9.54229C87.2393 9.53828 87.3377 9.53696 87.4373 9.53736C87.4688 9.53732 87.5003 9.53729 87.5328 9.53725C87.6391 9.53718 87.7455 9.53741 87.8519 9.53763C87.9278 9.53765 88.0038 9.53764 88.0797 9.53762C88.2865 9.53761 88.4933 9.53785 88.7002 9.53813C88.9161 9.53839 89.132 9.53841 89.3478 9.53846C89.757 9.53859 90.1661 9.53893 90.5752 9.53934C91.0409 9.53979 91.5065 9.54002 91.9722 9.54023C92.9303 9.54066 93.8885 9.54138 94.8466 9.54229C94.8207 9.70667 94.7875 9.85744 94.7334 10.0148C94.7191 10.0568 94.7049 10.0987 94.6903 10.142C94.6604 10.2288 94.6306 10.3157 94.6007 10.4025C94.5094 10.6712 94.5094 10.6712 94.4422 10.9466C94.3878 11.2127 94.2954 11.4687 94.2092 11.7257C94.179 11.8159 94.1491 11.9062 94.1193 11.9965C93.9603 12.4752 93.9603 12.4752 93.8664 12.6997C93.7944 12.8748 93.7415 13.0539 93.6899 13.2358C93.5774 13.6315 93.4401 14.0166 93.3003 14.4032C93.1828 14.7291 93.0749 15.05 92.9961 15.3881C92.9641 15.5175 92.9185 15.6369 92.8664 15.7593C92.7415 16.0619 92.6261 16.3677 92.5121 16.6746C92.4943 16.7219 92.4765 16.7692 92.4582 16.8179C92.352 17.1044 92.352 17.1044 92.2783 17.4004C92.2403 17.5924 92.1663 17.7636 92.0894 17.9428C91.9914 18.1716 91.9019 18.4039 91.8113 18.6358C91.8014 18.6611 91.7915 18.6863 91.7813 18.7123C91.6704 18.9961 91.5618 19.2801 91.4647 19.569C91.3377 19.9465 91.1809 20.3124 91.0263 20.6791C90.9138 20.9481 90.8128 21.2167 90.7237 21.4944C90.676 21.6357 90.6173 21.7653 90.5523 21.8995C90.5275 21.9514 90.5029 22.0034 90.4782 22.0554C90.4595 22.0949 90.4595 22.0949 90.4403 22.1353C90.3741 22.2769 90.3114 22.4201 90.249 22.5635C90.2376 22.5896 90.2261 22.6158 90.2143 22.6428C90.1573 22.7739 90.104 22.9055 90.0549 23.0399C89.8886 23.4919 89.6587 23.9225 89.4422 24.3518C89.3709 24.4937 89.3022 24.6347 89.2401 24.7811C89.1619 24.9637 89.0719 25.1385 88.9799 25.3144C88.9604 25.3517 88.9408 25.389 88.9208 25.4274C88.5461 26.1392 88.1481 26.8342 87.7107 27.5089C87.6932 27.536 87.6757 27.563 87.6577 27.5908C87.5414 27.77 87.423 27.9476 87.3029 28.1242C87.2746 28.1659 87.2746 28.1659 87.2456 28.2085C86.9718 28.609 86.6839 28.994 86.3781 29.3702C86.3029 29.4633 86.2296 29.5578 86.1561 29.6522C86.0102 29.8359 85.8545 30.0093 85.6959 30.1819C85.6169 30.269 85.5403 30.3569 85.4641 30.4465C85.2853 30.6527 85.0932 30.8455 84.9005 31.0385C84.8386 31.1006 84.7768 31.1629 84.7151 31.2253C84.4974 31.4445 84.2762 31.6569 84.0408 31.857C83.9982 31.894 83.9556 31.9309 83.913 31.9679C83.3779 32.4261 82.8257 32.851 82.2466 33.2517C82.2198 33.2703 82.193 33.2888 82.1655 33.308C81.8603 33.5188 81.5513 33.715 81.2278 33.8966C81.0978 33.97 80.9697 34.0462 80.8417 34.1232C80.8023 34.1469 80.7629 34.1705 80.7223 34.1949C80.6445 34.2418 80.5668 34.2888 80.4892 34.3359C80.2964 34.4518 80.1052 34.5555 79.8986 34.6439C79.781 34.6957 79.6663 34.7524 79.5512 34.8096C79.5077 34.8311 79.4642 34.8526 79.4193 34.8748C79.3295 34.9193 79.2397 34.964 79.1501 35.009C78.93 35.1172 78.7415 35.2082 78.4951 35.2206C78.4951 35.2477 78.4951 35.2748 78.4951 35.3027C78.4653 35.3132 78.4354 35.3237 78.4047 35.3346C77.9916 35.4815 77.5815 35.6362 77.1715 35.7914C77.1329 35.8059 77.0944 35.8205 77.0546 35.8355C76.9855 35.8618 76.9166 35.8884 76.8478 35.9155C76.7248 35.9637 76.6303 36 76.4971 36C76.0116 34.9126 76.0116 34.9126 75.8267 34.4363C75.7414 34.2197 75.6487 34.0063 75.5567 33.7926C75.5399 33.7534 75.5231 33.7142 75.5058 33.6739C75.4089 33.45 75.3052 33.2312 75.1954 33.0134C75.143 32.9062 75.1 32.7975 75.0597 32.6851C74.9675 32.4379 74.8672 32.1947 74.7641 31.9519C74.7416 31.8985 74.7416 31.8985 74.7186 31.8441C74.6272 31.6297 74.5278 31.4211 74.4229 31.213C74.3621 31.0887 74.3112 30.9635 74.262 30.8341C74.2449 30.7897 74.2279 30.7454 74.2103 30.6996C74.1728 30.5854 74.1728 30.5854 74.1728 30.4623C74.3069 30.3972 74.4412 30.3323 74.5755 30.2675C74.6129 30.2493 74.6503 30.2311 74.6889 30.2124C74.8689 30.1257 75.0483 30.0431 75.2346 29.9711C75.455 29.8842 75.6587 29.7733 75.8651 29.6573C75.904 29.6356 75.9429 29.6139 75.983 29.5915C76.0624 29.5473 76.1417 29.503 76.221 29.4586C76.3233 29.4017 76.4262 29.3462 76.5296 29.2912C76.9825 29.0484 77.3931 28.7639 77.8019 28.4524C77.8379 28.4254 77.8738 28.3983 77.9109 28.3705C78.1601 28.1797 78.3993 27.9748 78.6349 27.7673C78.699 27.714 78.699 27.714 78.771 27.6661C78.8509 27.6141 78.8509 27.6141 78.9437 27.5089C78.9353 27.248 78.8559 27.0348 78.7559 26.7964C78.7411 26.7602 78.7264 26.7241 78.7112 26.6869C78.6642 26.5719 78.6167 26.4572 78.5691 26.3424C78.5071 26.1922 78.4453 26.0418 78.3838 25.8914C78.3687 25.8544 78.3536 25.8175 78.338 25.7794C78.2349 25.5255 78.1412 25.2696 78.0525 25.0103C77.9461 24.7008 77.8221 24.399 77.6975 24.0966C77.5493 23.7367 77.4072 23.3768 77.2789 23.0091C77.2053 22.8007 77.1255 22.5949 77.045 22.3891C77.0298 22.3498 77.0146 22.3105 76.9989 22.27C76.9288 22.0901 76.857 21.9119 76.7777 21.7359C76.7077 21.5795 76.6506 21.4213 76.5965 21.2585C76.4684 20.8818 76.3174 20.5147 76.1656 20.1471C76.0727 19.9213 75.9848 19.6964 75.9105 19.4637C75.8778 19.3638 75.838 19.2681 75.7962 19.1717C75.6977 18.938 75.6076 18.7016 75.5184 18.4641C75.4309 18.2309 75.3428 17.9987 75.2458 17.7693C75.1793 17.612 75.1202 17.454 75.0648 17.2925C74.9622 16.9975 74.8442 16.7096 74.7259 16.4208C74.6043 16.1238 74.4835 15.8279 74.3818 15.5235C74.2561 15.1481 74.1028 14.7837 73.9533 14.4175C73.702 13.8013 73.702 13.8013 73.5994 13.493C73.4859 13.1523 73.3455 12.8229 73.2074 12.4917C73.0572 12.131 72.9169 11.7684 72.7872 11.3997C72.5935 10.8539 72.3763 10.3135 72.1412 9.7844C72.0932 9.66535 72.0932 9.66535 72.0932 9.54229Z"
        fill="#454F5C" />
    <path
        d="M45.3908 9.16088C45.4608 9.16072 45.5308 9.16054 45.6008 9.16035C45.7469 9.16004 45.8931 9.16005 46.0392 9.16027C46.186 9.16046 46.3328 9.16018 46.4796 9.15943C47.4138 9.15469 48.3302 9.18264 49.2583 9.29628C49.3004 9.30142 49.3426 9.30655 49.3861 9.31185C49.6388 9.34335 49.8907 9.37907 50.1426 9.41677C50.2161 9.42753 50.2896 9.43828 50.3631 9.44902C50.7986 9.5133 51.2315 9.58545 51.6628 9.67411C51.8087 9.70389 51.9546 9.7243 52.1024 9.74236C52.8455 9.84397 53.573 10.0736 54.2895 10.2898C54.4402 10.335 54.5914 10.3786 54.7427 10.4218C54.8089 10.4407 54.8089 10.4407 54.8765 10.46C54.9064 10.4686 54.9362 10.4771 54.967 10.4858C54.9426 10.746 54.8624 10.9742 54.7735 11.2188C54.7583 11.2612 54.7432 11.3036 54.7276 11.3473C54.6794 11.4824 54.6308 11.6174 54.5822 11.7523C54.5337 11.887 54.4853 12.0217 54.4372 12.1565C54.4073 12.2402 54.3772 12.3238 54.3469 12.4073C54.2728 12.6146 54.2125 12.8176 54.1685 13.0333C54.148 13.1269 54.1171 13.2116 54.0791 13.2994C53.9733 13.5547 53.881 13.8147 53.7889 14.0753C53.759 14.1597 53.7287 14.2441 53.6985 14.3285C53.6004 14.6041 53.5164 14.8748 53.4583 15.1621C53.4312 15.2456 53.4026 15.3287 53.3716 15.4108C53.3572 15.4493 53.3428 15.4879 53.328 15.5276C53.3171 15.5559 53.3063 15.5842 53.2951 15.6133C52.9912 15.5509 52.6989 15.4635 52.4032 15.3698C51.947 15.2258 51.498 15.0912 51.0272 15.0056C50.8211 14.9679 50.6163 14.9255 50.4116 14.8804C49.7679 14.7391 49.1253 14.6057 48.4733 14.5083C48.4455 14.5042 48.4178 14.5 48.3892 14.4957C48.2169 14.4702 48.0445 14.4463 47.8718 14.4237C47.8372 14.4192 47.8026 14.4146 47.767 14.4099C47.4782 14.3763 47.1885 14.3723 46.8982 14.3706C46.8405 14.3701 46.7828 14.3693 46.7251 14.3681C46.3134 14.3595 45.9542 14.3726 45.6291 14.6519C45.4849 14.8287 45.4523 14.9241 45.4482 15.1518C45.4466 15.2007 45.4449 15.2496 45.4432 15.2999C45.4723 15.4902 45.5369 15.5999 45.6699 15.7364C45.7665 15.8025 45.8486 15.8518 45.9528 15.9004C45.9809 15.914 46.009 15.9276 46.0379 15.9415C46.756 16.2745 47.5591 16.4657 48.3288 16.6366C48.7604 16.7324 49.1792 16.862 49.6004 16.9962C49.8663 17.0805 50.1309 17.1602 50.4025 17.2233C50.675 17.2886 50.9202 17.384 51.1748 17.5002C51.2552 17.5359 51.3358 17.5712 51.4163 17.6066C51.4726 17.6313 51.5288 17.6561 51.585 17.6811C51.7529 17.7555 51.9219 17.8262 52.0922 17.895C52.2913 17.978 52.464 18.0777 52.6427 18.1976C52.6906 18.2263 52.6906 18.2263 52.7394 18.2556C53.7664 18.8788 54.5611 19.7782 54.945 20.9331C54.9787 21.0784 54.9781 21.2075 54.967 21.3561C54.9939 21.3561 55.0208 21.3561 55.0485 21.3561C55.1187 21.8757 55.1398 22.394 55.1423 22.9178C55.1427 22.9865 55.1432 23.0551 55.144 23.1237C55.1598 24.6928 54.6277 26.2052 53.5398 27.3449C52.6199 28.287 51.4729 28.92 50.1961 29.2318C50.1652 29.2397 50.1342 29.2476 50.1023 29.2557C48.381 29.6875 46.4888 29.7786 44.7464 29.4152C44.5988 29.3856 44.4502 29.3642 44.3013 29.3421C43.606 29.2342 42.9191 29.1006 42.2475 28.8885C42.093 28.8412 41.9368 28.7999 41.7808 28.7576C41.542 28.6922 41.3114 28.6168 41.0801 28.5276C40.9783 28.4927 40.88 28.4714 40.7742 28.4525C40.5571 28.4128 40.3674 28.3339 40.1651 28.2474C40.0657 28.207 39.9664 28.1668 39.8669 28.1269C39.8278 28.1112 39.8278 28.1112 39.788 28.0951C39.3714 27.9226 39.3714 27.9226 38.9469 27.7723C38.6691 27.6851 38.4067 27.5658 38.1431 27.4427C38.0643 27.4061 37.9852 27.3702 37.9061 27.3342C37.8558 27.3109 37.8056 27.2876 37.7554 27.2642C37.7101 27.2433 37.6648 27.2224 37.6182 27.2008C37.5146 27.1398 37.5146 27.1398 37.4738 27.0168C37.5009 26.919 37.5009 26.919 37.5458 26.8038C37.5619 26.7617 37.5781 26.7195 37.5947 26.6761C37.612 26.632 37.6293 26.5879 37.6471 26.5425C37.7536 26.2679 37.8567 25.9956 37.9362 25.7117C37.9746 25.584 38.0253 25.4625 38.0757 25.3393C38.1824 25.0701 38.279 24.7968 38.3779 24.5246C38.4093 24.439 38.4415 24.3537 38.4738 24.2685C38.5288 24.1214 38.5775 23.9728 38.6256 23.8233C38.8049 23.2661 39.0143 22.7214 39.2272 22.1765C39.3944 22.207 39.5275 22.258 39.6808 22.3328C39.8397 22.4104 39.9967 22.4777 40.1631 22.537C40.3479 22.6033 40.529 22.6764 40.7095 22.7535C41.6804 23.1669 42.6629 23.5094 43.6718 23.8172C43.7043 23.8272 43.7367 23.8371 43.7702 23.8473C44.1919 23.9742 44.6105 24.0667 45.046 24.1308C45.1401 24.1455 45.2335 24.1625 45.3271 24.1802C45.7379 24.2546 46.1393 24.2801 46.5568 24.2813C46.6053 24.2815 46.6539 24.2817 46.7039 24.282C47.0529 24.2791 47.3633 24.2514 47.668 24.0634C47.8392 23.8725 47.8873 23.7542 47.8828 23.5017C47.858 23.2877 47.722 23.1643 47.5635 23.0353C47.2251 22.7959 46.8481 22.6785 46.4544 22.5665C46.189 22.4906 45.9257 22.4076 45.6623 22.3252C45.5861 22.3014 45.5861 22.3014 45.5084 22.2771C45.2709 22.2028 45.0336 22.1278 44.797 22.0507C44.737 22.0312 44.737 22.0312 44.6757 22.0112C44.6024 21.9873 44.5291 21.9632 44.4559 21.9389C44.2923 21.8855 44.1325 21.841 43.9632 21.8102C43.7192 21.7639 43.4915 21.6806 43.259 21.5945C43.192 21.57 43.192 21.57 43.1237 21.545C42.7696 21.4137 42.4246 21.2678 42.0816 21.1099C42.0204 21.0843 41.9592 21.0586 41.8981 21.033C41.2462 20.7389 40.639 20.3354 40.1243 19.8383C40.0928 19.8088 40.0614 19.7793 40.029 19.7489C39.3884 19.1309 38.9748 18.3121 38.7379 17.4592C38.7287 17.4269 38.7196 17.3946 38.7101 17.3614C38.5528 16.7699 38.5589 16.1647 38.5569 15.5569C38.5567 15.5164 38.5564 15.4758 38.5561 15.434C38.5534 14.738 38.6187 14.1006 38.8475 13.4393C38.8617 13.3976 38.8759 13.3558 38.8906 13.3129C39.1026 12.7051 39.365 12.1843 39.7573 11.6754C39.7855 11.6379 39.8137 11.6003 39.8428 11.5617C40.9259 10.1537 42.6587 9.42295 44.3764 9.20177C44.7143 9.16166 45.051 9.16055 45.3908 9.16088Z"
        fill="#454F5C" />
    <path
        d="M2.65049 5.31734C5.07262 5.31734 7.49476 5.31734 9.99029 5.31734C9.99029 6.7116 9.99029 8.10586 9.99029 9.54237C11.4974 9.54237 13.0045 9.54237 14.5573 9.54237C14.5573 11.5458 14.5573 13.5492 14.5573 15.6133C13.0502 15.6133 11.5431 15.6133 9.99029 15.6133C9.99517 16.7479 9.99517 16.7479 10.0008 17.8825C10.0033 18.3453 10.0056 18.8081 10.0075 19.2709C10.0088 19.608 10.0105 19.9451 10.0124 20.2822C10.0135 20.4606 10.0143 20.6389 10.0149 20.8173C10.0154 20.9855 10.0163 21.1536 10.0175 21.3217C10.0179 21.3832 10.0181 21.4447 10.0182 21.5062C10.0192 22.1439 10.0894 22.768 10.5527 23.2471C11.0648 23.6902 11.7937 23.7189 12.4356 23.7102C12.5033 23.7099 12.5709 23.7096 12.6385 23.7095C12.8142 23.7089 12.9898 23.7073 13.1654 23.7054C13.3456 23.7037 13.5257 23.703 13.7059 23.7022C14.0577 23.7004 14.4094 23.6976 14.7612 23.6942C14.7632 23.7182 14.7653 23.7423 14.7675 23.7671C14.7772 23.8782 14.7873 23.9894 14.7973 24.1005C14.8006 24.1383 14.8039 24.1762 14.8072 24.2151C14.8298 24.4622 14.8656 24.7026 14.9166 24.9453C14.9243 24.9821 14.9319 25.019 14.9398 25.057C14.9463 25.0872 14.9528 25.1173 14.9595 25.1484C15.0472 25.5691 15.1137 25.9941 15.1848 26.4179C15.2086 26.5588 15.2329 26.6996 15.2575 26.8403C15.3314 27.2684 15.3984 27.6893 15.4136 28.1243C15.0988 28.3511 14.7755 28.4935 14.4124 28.6214C14.301 28.6618 14.1907 28.7046 14.0804 28.7478C13.4272 29.0026 12.7857 29.2219 12.086 29.2951C11.9461 29.3111 11.9461 29.3111 11.8076 29.3515C10.5043 29.6916 8.98028 29.6613 7.65837 29.4677C7.62975 29.4635 7.60113 29.4593 7.57164 29.455C6.55865 29.3019 5.43782 28.9483 4.69107 28.2067C4.60774 28.1212 4.60774 28.1212 4.50598 28.0442C3.93282 27.5728 3.59727 26.8199 3.30291 26.1553C3.27642 26.097 3.27642 26.097 3.24939 26.0376C2.82313 25.0443 2.70777 23.8222 2.73204 22.7507C2.70513 22.7507 2.67821 22.7507 2.65049 22.7507C2.65049 20.3954 2.65049 18.04 2.65049 15.6133C1.77583 15.6133 0.901165 15.6133 0 15.6133C0 13.6099 0 11.6065 0 9.54237C0.87466 9.54237 1.74932 9.54237 2.65049 9.54237C2.65049 8.14811 2.65049 6.75385 2.65049 5.31734Z"
        fill="#454F5C" />
    <path
        d="M58.8 5.35836C61.1952 5.35836 63.5904 5.35836 66.0583 5.35836C66.0583 6.75262 66.0583 8.14688 66.0583 9.58339C67.5654 9.58339 69.0725 9.58339 70.6252 9.58339C70.6252 11.5597 70.6252 13.536 70.6252 15.5723C69.1181 15.5723 67.611 15.5723 66.0583 15.5723C66.062 16.681 66.062 16.681 66.0668 17.7897C66.069 18.2422 66.0711 18.6946 66.0724 19.147C66.0733 19.4766 66.0747 19.8062 66.0766 20.1358C66.0775 20.3101 66.0783 20.4844 66.0785 20.6587C66.0788 20.8232 66.0796 20.9877 66.0809 21.1522C66.0812 21.2122 66.0814 21.2721 66.0813 21.3321C66.081 21.725 66.1259 22.0827 66.2214 22.4636C66.2304 22.5029 66.2395 22.5422 66.2489 22.5827C66.3313 22.9295 66.5207 23.185 66.8177 23.3788C67.2192 23.6012 67.6612 23.6996 68.1164 23.6988C68.1606 23.6988 68.1606 23.6988 68.2057 23.6988C68.3024 23.6988 68.399 23.6985 68.4956 23.6982C68.5629 23.6981 68.6302 23.698 68.6975 23.698C68.8741 23.6978 69.0507 23.6974 69.2272 23.697C69.4076 23.6966 69.5881 23.6964 69.7685 23.6962C70.122 23.6957 70.4756 23.695 70.8291 23.6942C70.8337 23.7214 70.8383 23.7486 70.843 23.7767C70.9011 24.1235 70.9594 24.4703 71.0177 24.8171C71.0224 24.8447 71.027 24.8723 71.0318 24.9007C71.1715 25.7315 71.3131 26.562 71.4609 27.3914C71.4755 27.4747 71.4896 27.558 71.5033 27.6414C71.515 27.7112 71.5281 27.7808 71.5435 27.8498C71.5582 27.9571 71.559 28.0215 71.5223 28.1243C71.3053 28.3101 71.0708 28.4183 70.7884 28.4524C70.7884 28.4795 70.7884 28.5066 70.7884 28.5345C70.7535 28.5466 70.7535 28.5466 70.718 28.5589C70.6115 28.5959 70.5049 28.6332 70.3984 28.6704C70.3619 28.683 70.3254 28.6957 70.2878 28.7087C70.1326 28.7631 69.9805 28.8182 69.8299 28.8848C69.6452 28.9624 69.4569 29.0162 69.2643 29.0703C69.2096 29.0861 69.2096 29.0861 69.1538 29.1021C68.7779 29.209 68.4081 29.2849 68.0206 29.3344C67.794 29.3636 67.569 29.3945 67.3446 29.4379C65.9077 29.7068 64.017 29.7113 62.6203 29.2267C62.5837 29.2142 62.5471 29.2016 62.5095 29.1887C62.1676 29.0678 61.8468 28.9198 61.532 28.7396C61.5074 28.7255 61.4828 28.7115 61.4574 28.697C60.3209 28.0353 59.6318 26.9413 59.2485 25.7041C59.2384 25.6716 59.2283 25.6391 59.2179 25.6057C58.8254 24.3295 58.775 23.0713 58.7752 21.7454C58.7751 21.529 58.7741 21.3126 58.7731 21.0962C58.7715 20.6884 58.7706 20.2807 58.7701 19.8729C58.7694 19.4078 58.7679 18.9428 58.7662 18.4777C58.7629 17.5229 58.7608 16.5681 58.7592 15.6133C57.8846 15.5997 57.0099 15.5862 56.1087 15.5723C56.1087 13.5824 56.1087 11.5925 56.1087 9.54237C56.9969 9.54237 57.885 9.54237 58.8 9.54237C58.8 8.16164 58.8 6.78092 58.8 5.35836Z"
        fill="#454F5C" />
    <path
        d="M139.701 3.18431C142.11 3.18431 144.518 3.18431 147 3.18431C147 11.7935 147 20.4027 147 29.2728C144.591 29.2728 142.183 29.2728 139.701 29.2728C139.701 20.6636 139.701 12.0544 139.701 3.18431Z"
        fill="#454F5C" />
    <path
        d="M129.425 3.18431C131.834 3.18431 134.243 3.18431 136.724 3.18431C136.724 11.7935 136.724 20.4027 136.724 29.2728C134.316 29.2728 131.907 29.2728 129.425 29.2728C129.425 20.6636 129.425 12.0544 129.425 3.18431Z"
        fill="#454F5C" />
    <path
        d="M118.986 9.54237C121.382 9.54237 123.777 9.54237 126.245 9.54237C126.245 16.0399 126.245 22.5374 126.245 29.2318C123.849 29.2318 121.454 29.2318 118.986 29.2318C118.986 22.7343 118.986 16.2368 118.986 9.54237Z"
        fill="#454F5C" />
    <path
        d="M123.92 0.189846C123.949 0.199046 123.977 0.208247 124.006 0.217726C125.048 0.563965 125.854 1.12792 126.38 2.12361C126.586 2.54096 126.679 3.00738 126.693 3.47142C126.695 3.50084 126.696 3.53026 126.698 3.56057C126.748 4.61842 126.476 5.49093 125.796 6.30178C125.774 6.32907 125.751 6.35635 125.728 6.38446C125.163 7.01047 124.099 7.47732 123.268 7.53237C123.08 7.53906 122.892 7.54172 122.704 7.54223C122.617 7.54262 122.529 7.54389 122.442 7.54519C121.389 7.55336 120.299 7.19554 119.531 6.44913C119.23 6.14234 118.997 5.81289 118.811 5.42498C118.798 5.39846 118.785 5.37193 118.772 5.3446C118.556 4.86903 118.47 4.40932 118.476 3.89152C118.477 3.80232 118.476 3.71325 118.475 3.62404C118.474 3.09966 118.568 2.60992 118.818 2.14341C118.833 2.11592 118.847 2.08844 118.862 2.06012C118.902 1.98312 118.944 1.9068 118.986 1.83063C119.005 1.79611 119.024 1.76158 119.043 1.726C119.53 0.916543 120.457 0.372783 121.351 0.148826C122.177 -0.0372225 123.109 -0.0756645 123.92 0.189846Z"
        fill="#454F5C" />
    <path fill-rule="evenodd" clip-rule="evenodd"
        d="M111.799 9.50153L111.647 9.46035C109.789 8.92451 107.975 9.15679 106.183 9.7885V9.87054C105.988 9.88761 105.85 9.95005 105.682 10.0443L105.589 10.0987C105.49 10.1552 105.392 10.212 105.294 10.2693L105.204 10.3218C104.912 10.4889 104.639 10.672 104.368 10.8721L104.261 10.9524C104.124 11.0542 103.991 11.1585 103.858 11.2652L103.41 11.6754L103.369 9.50137H96.0699V35.3848H103.369L103.41 27.0988C103.453 27.1414 103.473 27.1605 103.491 27.1808C103.506 27.1974 103.52 27.2147 103.546 27.2462C103.719 27.4541 103.909 27.6356 104.11 27.816L104.225 27.9192C104.855 28.4988 105.607 29.1107 106.46 29.3062C106.579 29.3281 106.697 29.3504 106.813 29.3828C107.901 29.6948 109.216 29.7241 110.326 29.4988L110.423 29.478C110.844 29.3879 111.255 29.2833 111.653 29.1179L111.769 29.0678C111.838 29.0402 111.907 29.012 111.975 28.9832C113.537 28.2504 114.865 26.8621 115.515 25.248C115.541 25.1802 115.568 25.1126 115.596 25.0452L115.62 24.9857C115.752 24.663 115.883 24.341 115.984 24.007C116.006 23.93 116.028 23.8531 116.05 23.7762C116.099 23.6356 116.136 23.5305 116.167 23.4239C116.259 23.1087 116.305 22.7798 116.488 21.4787L116.499 21.3971C116.754 19.5676 116.67 17.6571 116.395 15.8339L116.379 15.7312C116.249 14.8804 116.045 14.0769 115.731 13.2741L115.683 13.1521C115.305 12.1189 114.655 11.1901 113.785 10.5196L113.685 10.4448C113.115 9.99654 112.497 9.69357 111.799 9.50153ZM109.404 18.4026C109.326 17.4604 109.078 16.4738 108.349 15.8332C106.999 14.8054 105.132 15.3495 104.006 16.4388C103.958 16.4925 103.908 16.5453 103.858 16.5977C103.771 16.6729 103.688 16.7469 103.607 16.8282C103.496 16.9513 103.424 17.0306 103.378 17.123C103.297 17.2897 103.301 17.4994 103.315 18.0874C103.317 18.1884 103.319 18.2895 103.319 18.3906C103.32 18.6568 103.323 18.9228 103.327 19.1889C103.332 19.4365 103.335 19.684 103.336 19.9316C103.338 20.1707 103.34 20.4098 103.342 20.649L103.344 20.8014C103.345 20.9485 103.347 21.0955 103.349 21.2426L103.352 21.3769L103.353 21.5041L103.356 21.6203C103.357 21.7026 103.358 21.7608 103.372 21.8157C103.405 21.948 103.513 22.0615 103.879 22.4481L103.981 22.5456C104.384 22.974 104.81 23.2589 105.376 23.4182L105.489 23.448C105.894 23.5595 106.283 23.6044 106.701 23.5794C107.278 23.5277 107.977 23.3176 108.369 22.8651L108.425 22.7917C108.543 22.6471 108.648 22.5109 108.726 22.3405L108.751 22.2584H108.833C108.983 21.9255 109.118 21.5933 109.207 21.238L109.233 21.1304C109.372 20.5613 109.416 19.9865 109.415 19.4024C109.414 19.2997 109.414 19.1969 109.414 19.0942C109.416 18.8635 109.416 18.633 109.404 18.4026Z"
        fill="#454F5C" />
    <path fill-rule="evenodd" clip-rule="evenodd"
        d="M31.2392 9.71229C31.1534 9.6889 31.0686 9.66444 30.984 9.63674C28.767 8.88569 25.9915 8.93654 23.7193 9.4399C23.5139 9.48814 23.3082 9.52656 23.1003 9.56217L23.0642 9.56831C22.7798 9.61663 22.4964 9.66479 22.2156 9.73216C22.0956 9.76163 21.9771 9.78883 21.8553 9.81003C21.4677 9.87118 21.0941 9.96622 20.7164 10.0731C20.665 10.0878 20.6136 10.1025 20.5623 10.1172C20.1981 10.2217 19.8344 10.326 19.4607 10.391C19.1219 10.4476 18.799 10.5469 18.4718 10.65C18.4847 10.8987 18.5071 11.1403 18.5636 11.3832C18.6035 11.5465 18.643 11.7098 18.6797 11.8738C18.7621 12.2432 18.8463 12.6119 18.9342 12.98L18.9662 13.1137C19.0053 13.277 19.0443 13.4402 19.0835 13.6034C19.1393 13.8343 19.1946 14.0642 19.233 14.2988C19.3021 14.7214 19.4035 15.123 19.532 15.5313C19.6429 15.5351 19.7435 15.5301 19.8532 15.512L19.9833 15.4847L20.1308 15.4542C20.2661 15.4259 20.4015 15.398 20.537 15.3704L20.6215 15.3533C20.6595 15.3456 20.6975 15.3379 20.7354 15.3301C21.3303 15.209 21.9264 15.0877 22.5317 15.0365C22.8076 15.0144 23.0792 14.9814 23.3528 14.9382C23.6334 14.8937 23.9139 14.8502 24.1963 14.8185C24.2819 14.8101 24.3706 14.8009 24.4618 14.7914C25.4607 14.6872 26.7557 14.5522 27.5497 15.1929C27.9732 15.583 28.1323 16.0282 28.173 16.5942L28.1824 16.7404C28.1944 16.9117 28.2063 17.0829 28.2175 17.2541C27.6396 17.2523 27.0618 17.2509 26.484 17.25C26.2023 17.2496 25.9206 17.2492 25.639 17.2482C25.3922 17.2474 25.1454 17.2468 24.8987 17.2465C24.793 17.2464 24.6874 17.2463 24.5818 17.2461C23.3125 17.2406 22.1052 17.3367 20.8776 17.6716L20.7553 17.7054C19.7842 17.9708 18.8218 18.4157 18.0827 19.1197C16.9981 20.2386 16.484 21.6785 16.5006 23.2395C16.5014 23.3046 16.502 23.3698 16.5024 23.4349C16.5057 23.9305 16.5191 24.4239 16.5835 24.9158L16.5961 25.0069C16.691 25.7253 16.9005 26.4558 17.231 27.1008C17.8843 28.2434 18.8861 28.9816 20.1489 29.3385C21.8618 29.7813 24.1995 29.8792 25.7629 28.9577C25.824 28.9209 25.8855 28.8847 25.9474 28.8493C26.3745 28.6049 26.7763 28.3465 27.1526 28.0282C27.1949 27.9919 27.2372 27.9556 27.2796 27.9193C27.3938 27.8266 27.498 27.7337 27.6058 27.6321L28.1767 27.0168L28.2175 29.2319H35.4349L35.4352 28.6875C35.4359 27.3565 35.4366 26.0256 35.4369 24.6947L35.4372 23.6485C35.4373 23.0149 35.4376 22.3814 35.438 21.7478C35.4384 21.0954 35.4387 20.4429 35.4388 19.7905C35.4388 19.3884 35.4389 18.9863 35.4392 18.5842C35.4395 18.3061 35.4396 18.028 35.4396 17.7499C35.4395 17.5892 35.4395 17.4284 35.4397 17.2677C35.4399 17.1191 35.44 16.9704 35.4399 16.8218L35.4398 16.6582C35.4418 15.8496 35.3475 15.0486 35.1504 14.2642C35.129 14.1794 35.1085 14.0947 35.0901 14.0092C34.9594 13.377 34.7406 12.8259 34.4257 12.2626C33.7299 11.0544 32.5933 10.0878 31.2392 9.71229ZM26.1277 20.6883C26.061 20.6882 25.9944 20.688 25.9277 20.6878C25.2258 20.6805 24.2891 20.6793 23.7517 21.2064L23.6912 21.2741C23.6467 21.3234 23.6034 21.3739 23.5612 21.4253C23.2673 21.8462 23.2189 22.3225 23.3021 22.8216L23.3242 22.9148L23.342 22.9969C23.4585 23.4134 23.7384 23.8194 24.1068 24.0456C24.8304 24.4172 25.699 24.4136 26.4678 24.1708L26.5863 24.1326C26.6005 24.1282 26.6147 24.1238 26.6289 24.1194C26.8214 24.06 27.0116 24.0012 27.188 23.9009L27.3203 23.8173C27.3913 23.7738 27.4621 23.7302 27.5324 23.6856L27.6032 23.6404C27.6505 23.6109 27.6976 23.5812 27.7445 23.5511C27.7934 23.5168 27.8423 23.4824 27.8912 23.4481C27.9845 23.3897 28.0656 23.3298 28.1478 23.2562C28.1852 23.2051 28.2094 23.1719 28.2252 23.1349C28.2545 23.0664 28.2545 22.9852 28.2544 22.7532C28.2518 22.6732 28.2492 22.5931 28.2484 22.513C28.2475 22.3712 28.2456 22.2295 28.242 22.0878C28.2383 21.941 28.236 21.7943 28.2343 21.6476C28.2308 21.3316 28.225 21.0157 28.2174 20.6998C27.8712 20.6972 27.5249 20.6951 27.1786 20.6938L27.133 20.6936C26.9708 20.693 26.8085 20.6925 26.6463 20.6913C26.4734 20.69 26.3006 20.6887 26.1277 20.6883Z"
        fill="#454F5C" />
</svg>