<svg width="95" height="38" viewBox="0 0 95 38" fill="none" xmlns="http://www.w3.org/2000/svg">
    <path fill-rule="evenodd" clip-rule="evenodd"
        d="M78.0809 0.298818C76.0644 1.19787 75.6032 1.72597 75.2073 3.58917C74.877 5.14175 74.619 5.58174 73.0211 7.31671C70.499 10.0551 70.3402 10.1747 68.5346 10.6943C66.5043 11.2783 65.7798 11.9545 65.1933 13.8127C64.7597 15.186 64.7588 15.3723 65.184 16.358C65.4364 16.9428 65.7714 17.9266 65.9285 18.5439C66.6075 21.2125 71.3225 27.734 73.7189 29.3188C75.112 30.24 75.7617 30.3694 76.64 29.9C77.57 29.403 78.0376 28.0429 78.4226 24.7136C78.7329 22.0332 78.9265 21.2952 79.5811 20.2999C80.6499 18.6753 84.4121 14.9511 85.6018 14.3402C86.134 14.0669 87.8262 13.6682 89.3621 13.4538C93.6397 12.8567 94.8533 12.0642 94.4857 10.1073C93.9981 7.51313 87.0803 2.30766 81.8238 0.579702C79.7205 -0.111704 79.105 -0.157723 78.0809 0.298818ZM3.14812 2.47939C3.08882 2.67244 2.82802 4.02972 2.56834 5.49587C2.30866 6.96203 2.03633 8.38272 1.96326 8.65266C1.84186 9.10191 2.13976 9.14372 5.45405 9.14372H9.07748L9.57098 6.26753C9.84246 4.68549 10.1311 3.10738 10.2126 2.75999C10.3599 2.13088 10.3483 2.12863 6.80809 2.12863C4.21101 2.12863 3.22681 2.22292 3.14812 2.47939ZM17.747 2.75999C17.664 3.10738 17.3622 4.68549 17.0764 6.26753L16.557 9.14372H20.1237H23.6906L24.303 5.84663C24.6397 4.03309 24.9148 2.45469 24.9143 2.33909C24.9137 2.22348 23.3351 2.12863 21.4058 2.12863C18.0005 2.12863 17.8937 2.14715 17.747 2.75999ZM30.6166 2.53523C28.1825 3.29482 26.3647 5.42909 25.8839 8.09146L25.6939 9.14372H36.54H47.3859L47.5328 8.51236C48.0199 6.4199 48.689 2.39016 48.569 2.27034C48.4909 2.19233 44.6856 2.13705 40.1129 2.14743C34.0759 2.1609 31.4751 2.26725 30.6166 2.53523ZM54.8441 2.38931C53.6331 2.68114 52.7278 3.19465 51.6585 4.19668C50.5012 5.28093 49.977 6.25406 49.6718 7.88493L49.4363 9.14372H58.2618C65.308 9.14372 67.2825 9.06234 68.056 8.73965C70.0024 7.92758 73.5331 3.9924 73.5331 2.63484C73.5331 2.15697 73.0337 2.13032 64.6101 2.15725C59.7024 2.17325 55.3078 2.27763 54.8441 2.38931ZM1.48156 11.599C1.40231 11.8689 0.99593 14.1185 0.578306 16.5974C-0.30022 21.8113 -0.226026 22.8226 1.13448 24.181C2.53377 25.5781 3.69671 25.7568 10.6954 25.6508C16.0894 25.5691 17.0328 25.4886 17.8875 25.0354C19.1418 24.3707 20.6287 22.9763 21.1562 21.9704C21.5325 21.2532 23.2272 12.7744 23.2272 11.6097C23.2272 11.1548 22.9023 11.1079 19.744 11.1079H16.2608L15.6479 14.5453C15.3109 16.4358 14.9852 18.1407 14.9245 18.3335C14.7609 18.8509 7.48905 18.8352 7.48905 18.3175C7.48905 18.1157 7.74198 16.5761 8.05112 14.8961C8.36027 13.2161 8.6132 11.6764 8.6132 11.4747C8.6132 11.1924 7.80859 11.1079 5.11905 11.1079C2.03352 11.1079 1.60831 11.1655 1.48156 11.599ZM24.545 15.5274C23.7466 20.2744 23.7075 20.5923 23.757 21.9805C23.7997 23.1865 25.453 25.0276 26.838 25.4117C28.4492 25.8584 39.1739 25.7787 40.7396 25.3082C42.4671 24.789 44.1295 23.4348 44.8312 21.9752C45.1451 21.3227 45.7266 18.9578 46.1237 16.72C46.5208 14.4822 46.9162 12.3042 47.0028 11.8796L47.1602 11.1079H41.9843H36.8084L36.341 13.7198C36.0842 15.1562 35.8739 16.4189 35.8739 16.5258C35.8739 16.6325 36.5841 16.72 37.4525 16.72C38.9522 16.72 39.0224 16.7514 38.8614 17.3514C38.7684 17.6985 38.6902 18.1407 38.6883 18.3335C38.6852 18.5956 37.7735 18.6842 35.0778 18.6842C33.0939 18.6842 31.4035 18.6169 31.3208 18.5344C31.1932 18.4067 31.9164 13.7131 32.3677 11.7393C32.5119 11.1099 32.5015 11.1079 28.9003 11.1079H25.2883L24.545 15.5274ZM48.9819 11.599C48.4161 13.6019 47.3434 21.2596 47.5067 22.1295C47.7596 23.4753 49.2165 24.9933 50.6318 25.3856C51.8979 25.7364 67.3576 25.832 67.3385 25.4889C67.332 25.3733 66.4701 23.8263 65.4232 22.0515L63.5197 18.8245L59.2521 18.7471C56.0106 18.6882 54.9846 18.5832 54.9846 18.3102C54.9846 18.1124 55.2375 16.5761 55.5466 14.8961C55.8558 13.2161 56.1087 11.6764 56.1087 11.4747C56.1087 11.1924 55.3041 11.1079 52.6146 11.1079C49.5274 11.1079 49.1044 11.1652 48.9819 11.599ZM35.7399 28.5755C35.585 29.041 34.4688 36.2537 34.4688 36.7871C34.4688 37.0941 34.8021 37.2041 35.7334 37.2041C37.1063 37.2041 37.482 36.7357 36.2252 36.5912C35.7374 36.5354 35.4695 36.3474 35.4993 36.0816C35.8169 33.2271 35.8992 32.995 36.5937 32.995C36.9708 32.995 37.2791 32.8687 37.2791 32.7144C37.2791 32.5601 37.0262 32.4338 36.7171 32.4338C36.1044 32.4338 36.0285 31.9731 36.3354 30.1188C36.4964 29.1454 36.5805 29.0666 37.4565 29.0666C38.1107 29.0666 38.4033 28.9366 38.4033 28.6457C38.4033 28.1063 35.9175 28.0407 35.7399 28.5755ZM41.1032 28.6687C41.0094 28.9128 40.9326 30.9418 40.9326 33.1777C40.9326 37.2055 40.9383 37.2422 41.5504 37.1535C42.086 37.0758 42.3471 36.4837 43.5089 32.7144C44.2461 30.3223 44.8534 28.3244 44.8582 28.2744C44.8632 28.2245 44.646 28.2262 44.3754 28.2778C44.0117 28.3477 43.6081 29.2849 42.8257 31.8762L41.7679 35.3801L41.934 31.8024C42.0748 28.7669 42.0374 28.2248 41.687 28.2248C41.4596 28.2248 41.1971 28.4245 41.1032 28.6687ZM47.2625 28.5755C47.1076 29.041 45.9913 36.2537 45.9913 36.7871C45.9913 37.0941 46.3246 37.2041 47.256 37.2041C48.6289 37.2041 49.0046 36.7357 47.7478 36.5912C47.2599 36.5354 46.9921 36.3474 47.0219 36.0816C47.3395 33.2271 47.4218 32.995 48.1163 32.995C48.4934 32.995 48.8017 32.8687 48.8017 32.7144C48.8017 32.5601 48.5488 32.4338 48.2396 32.4338C47.627 32.4338 47.5511 31.9731 47.858 30.1188C48.019 29.1454 48.1031 29.0666 48.9791 29.0666C49.6333 29.0666 49.9259 28.9366 49.9259 28.6457C49.9259 28.1063 47.4401 28.0407 47.2625 28.5755ZM52.1995 32.5842C51.8361 34.982 51.6205 37.0253 51.7206 37.1252C52.107 37.511 52.392 36.6858 52.741 34.1707C52.9406 32.7338 53.1989 31.7118 53.3152 31.8998C53.4316 32.0878 53.6153 33.3581 53.7233 34.7227C53.8961 36.9016 53.9849 37.2041 54.4523 37.2041C54.7659 37.2041 54.991 37.0023 55.0003 36.713C55.0087 36.4428 55.3016 34.4227 55.6509 32.2234C56.134 29.1802 56.202 28.2248 55.935 28.2248C55.5003 28.2248 55.4008 28.5769 54.9452 31.7323C54.6552 33.7397 54.5422 34.0852 54.3941 33.4159C54.2918 32.9529 54.1912 31.8796 54.171 31.0308C54.1218 28.9846 53.8933 28.2248 53.3276 28.2248C52.9406 28.2248 52.7472 28.9717 52.1995 32.5842ZM58.6381 28.6457C58.6381 28.8825 58.8893 29.0666 59.2128 29.0666C59.7074 29.0666 59.765 29.1937 59.6245 29.9785C59.5346 30.48 59.235 32.3112 58.9587 34.0473C58.4942 36.9658 58.4911 37.2041 58.92 37.2041C59.2859 37.2041 59.4567 36.715 59.7282 34.8891C60.5306 29.4945 60.6363 29.0666 61.1663 29.0666C61.4428 29.0666 61.7421 28.8772 61.8312 28.6457C61.9639 28.3005 61.691 28.2248 60.3156 28.2248C59.0119 28.2248 58.6381 28.3185 58.6381 28.6457ZM65.2425 28.4515C64.4199 28.61 64.2915 28.805 63.998 30.3408C63.7482 31.6492 63.7816 31.794 64.5579 32.768C65.7188 34.2252 65.6713 36.3622 64.4778 36.3622C63.9688 36.3622 63.9326 36.2393 64.1037 35.0995C64.2541 34.0983 64.2091 33.8368 63.8873 33.8368C63.4292 33.8368 63.1442 34.6629 63.1386 36.0062C63.1355 36.7335 63.2696 36.9465 63.8171 37.0837C65.3111 37.458 66.0153 36.8185 66.3534 34.7805C66.5249 33.7465 66.4515 33.5127 65.6834 32.6389C64.7889 31.6217 64.5922 30.579 65.1118 29.6092C65.272 29.3107 65.6047 29.0666 65.8515 29.0666C66.2138 29.0666 66.2708 29.2857 66.1471 30.2047C66.0187 31.1613 66.069 31.3291 66.4616 31.2544C66.8011 31.1902 66.9518 30.8125 67.013 29.871C67.0883 28.7096 67.0304 28.564 66.451 28.4596C66.0954 28.3956 65.5516 28.392 65.2425 28.4515Z"
        fill="#454F5C" />
</svg>